<?xml version="1.0" encoding="UTF-8"?>
<!-- Generated by Pixelmator Pro 3.7.1 -->
<svg width="1433" height="1450" viewBox="0 0 1433 1450" xmlns="http://www.w3.org/2000/svg">
    <path id="Path" fill="#0061a6" stroke="none" d="M 4.477783 636.322021 C -0.140381 681.300781 -0.132568 727.313232 3.158203 773.115967 C 14.62085 932.672119 48.276611 1113.393066 166.162109 1229.861328 C 278.320557 1340.668701 436.634277 1385.72229 584.921143 1424.930786 C 676.583008 1449.166748 760.792969 1461.523438 852.942871 1432.139038 C 933.893799 1406.326172 1011.706543 1360.889648 1081.138184 1312.467407 C 1340.041992 1131.904541 1504.925293 817.866943 1400.338867 503.607666 C 1347.137207 343.750977 1228.291992 236.134766 1076.404297 170.124756 C 984.58667 130.220947 889.164795 97.425781 793.662354 67.588745 C 704.964844 39.878296 613.666748 10.491943 520.647949 2.406738 C 326.906982 -14.432861 169.109375 90.682861 81.037598 259.486816 C 20.210938 376.071045 4.294434 505.950928 4.477783 636.322021 Z M 1132.177246 686.93335 C 1184.068848 710.524414 1179.530762 792.385742 1122.027344 805.18335 C 1097.225098 810.703979 1069.349121 800.269043 1056.728027 777.638184 C 1050.55957 766.577148 1048.541016 753.970825 1050.089844 741.837036 C 1048.196289 704.341553 1090.696289 668.073486 1132.177246 686.93335 Z M 886.533203 599.90332 C 888.938965 596.031616 891.97998 593.476318 895.271729 591.830933 C 901.341797 586.465332 909.054443 582.997559 918.547607 582.550049 C 956.418701 580.766724 964.587646 623.852539 960.116699 652.665649 C 955.213379 684.27417 922.386719 711.604736 891.890381 689.967773 C 862.921387 669.415283 870.288086 626.049805 886.533203 599.90332 Z M 548.386475 739.912842 C 588.657471 679.340576 623.954834 616.215454 654.473877 550.188599 C 666.27002 524.6698 703.9104 546.886597 692.193359 572.237061 C 666.111084 628.666138 636.311768 682.858765 603.125977 735.26709 C 625.892822 738.654541 648.697754 740.39502 672.027588 740.412354 C 700.182129 740.432617 700.13623 784.115479 672.027588 784.095703 C 634.499268 784.067749 598.092529 779.981445 561.439941 771.999023 C 548.141113 769.102905 540.82959 751.281128 548.386475 739.912842 Z M 363.407471 583.974121 C 365.812744 580.102539 368.85376 577.547119 372.145508 575.901733 C 378.2146 570.536255 385.928223 567.068359 395.421387 566.62085 C 433.293945 564.837646 441.458984 607.92334 436.991211 636.737061 C 432.086426 668.345093 399.260498 695.675537 368.763428 674.038574 C 339.795166 653.486084 347.161865 610.120605 363.407471 583.974121 Z M 317.65332 788.020752 C 517.306152 925.048218 774.832764 927.394531 977.403809 795.289063 C 1001.014648 779.891846 1021.138672 818.7052 997.794434 833.929443 C 782.861328 974.09668 505.381104 969.833252 293.990723 824.748169 C 270.837646 808.857178 294.40918 772.067139 317.65332 788.020752 Z M 227.932373 664.392578 C 279.82373 687.984131 275.286865 769.845459 217.783203 782.642578 C 192.980225 788.163208 165.102783 777.728271 152.484131 755.097412 C 146.31543 744.036865 144.296143 731.428955 145.843506 719.296143 C 143.951416 681.80127 186.451172 645.533203 227.932373 664.392578 Z"/>
</svg>
