<?xml version="1.0" encoding="UTF-8"?>
<!-- Generated by Pixelmator Pro 3.7.1 -->
<svg width="1582" height="1472" viewBox="0 0 1582 1472" xmlns="http://www.w3.org/2000/svg">
    <path id="Path" fill="#00b353" stroke="none" d="M 936.755859 2.44873 C 840.6875 5.662598 744.526367 10.628418 649.521973 26.035156 C 456.356201 57.361328 282.63501 143.752441 167.9104 305.888672 C 146.968262 335.484863 128.760498 366.743164 113.09375 399.135254 C 47.599854 501.850586 18.535889 626.050537 6.530518 747.646729 C -10.079102 915.89624 1.93457 1106.8396 134.74707 1228.484863 C 203.205078 1291.185547 290.311279 1334.324707 374.082764 1372.553711 C 459.272949 1411.428955 548.083984 1443.909424 640.601074 1459.962646 C 734.147461 1476.194824 830.805664 1476.786865 922.752441 1450.900879 C 1011.617188 1425.881592 1090.358887 1376.880615 1162.858398 1320.931641 C 1428.247559 1116.128174 1671.224609 766.376465 1548.340332 417.781738 C 1491.881836 257.623535 1378.851563 70.588867 1206.30127 20.307617 C 1119.16748 -5.083984 1026.369629 -0.548828 936.755859 2.44873 Z M 709.492188 609.988037 C 726.26709 580.722168 771.499023 607.130127 754.712402 636.419434 C 729.152832 681.009033 709.735352 727.839844 698.232422 778.004639 C 696.569336 785.255615 684.440918 823.14917 689.267578 829.068604 C 693.549316 834.321289 697.134277 831.122559 706.056152 831.513184 C 727.757324 832.467285 750.853027 828.450195 772.544922 826.967041 C 806.240234 824.662842 805.98584 877.049805 772.544922 879.336182 C 725.527344 882.55127 636.736816 906.663574 636.662598 833.908691 C 636.583008 757.196777 672.081055 675.25293 709.492188 609.988037 Z M 376.81543 925.107422 C 353.368896 923.550537 331.512939 907.085938 326.021973 883.799805 C 325.155518 880.126465 324.91333 876.339355 324.943604 872.543945 C 323.958008 867.294922 323.675049 861.835449 324.324951 856.286133 C 330.159912 806.523682 394.158936 787.984863 428.484619 822.975342 C 466.841309 862.078613 428.511963 928.539551 376.81543 925.107422 Z M 518.026123 705.758789 C 516.141113 713.042969 512.10083 717.894531 507.140869 720.850342 C 503.38501 725.073975 498.577637 728.512207 492.499756 730.73584 C 458.205811 743.296875 438.739746 704.499023 435.807861 676.472656 C 432.724609 646.961182 458.341309 620.790527 488.526367 630.161133 C 521.828857 640.500977 525.48584 676.903809 518.026123 705.758789 Z M 977.249512 981.628662 C 848.413574 1098.202148 657.54248 1094.212402 535.160645 970.0625 C 511.469971 946.027344 548.49707 908.993164 572.192871 933.032959 C 674.02832 1036.337891 832.22168 1042.317383 940.217285 944.598145 C 965.16748 922.02417 1002.294434 958.967773 977.249512 981.628662 Z M 1064.348633 676.472656 C 1061.417969 704.499023 1041.953125 743.296875 1007.658203 730.73584 C 1001.580078 728.512207 996.774902 725.073975 993.01709 720.850342 C 988.056641 717.894531 984.015137 713.042969 982.133301 705.758789 C 974.672852 676.903809 978.329102 640.500977 1011.632813 630.161133 C 1041.81543 620.790527 1067.432129 646.961182 1064.348633 676.472656 Z M 1121.764648 915.834717 C 1098.317871 914.278809 1076.462402 897.813477 1070.972168 874.526123 C 1070.105469 870.851318 1069.862305 867.067139 1069.892578 863.27124 C 1068.907227 858.020264 1068.625488 852.561035 1069.274414 847.012451 C 1075.109375 797.25 1139.107422 778.711182 1173.432617 813.702637 C 1211.790527 852.806641 1173.460449 919.267334 1121.764648 915.834717 Z"/>
</svg>
