<?xml version="1.0" encoding="UTF-8"?>
<!-- Generated by Pixelmator Pro 3.7.1 -->
<svg width="1797" height="1688" viewBox="0 0 1797 1688" xmlns="http://www.w3.org/2000/svg">
    <path id="Path" fill="#ade1ea" stroke="none" d="M 62.390625 614.378662 C 25.072754 713.589355 7.183594 821.054932 1.810547 926.70459 C -8.212891 1123.765869 44.523926 1312.937256 185.644043 1455.069824 C 482.590332 1754.14209 938.155762 1722.434326 1306.345215 1594.39978 C 1471.724121 1536.890503 1644.639648 1451.131958 1733.387695 1292.120117 C 1831.396973 1116.519043 1800.290527 903.296631 1742.366211 720.076172 C 1683.478516 533.807129 1598.14209 346.131104 1449.990234 213.702148 C 1316.422363 94.309326 1145.603027 22.824951 967.932617 4.498047 C 564.364258 -37.129883 188.715332 235.619873 62.586914 613.679688 C 62.508789 613.917969 62.46582 614.142578 62.390625 614.378662 Z M 1199.317871 1096.871826 C 1096.90625 1178.496094 968.073242 1198.735352 840.365234 1204.121582 C 704.73584 1209.844727 566.979492 1186.925049 466.399902 1089.024658 C 438.646973 1062.010498 481.151855 1019.590088 508.86377 1046.561523 C 598.11377 1133.435791 720.84082 1149.157471 840.365234 1144.071289 C 950.095215 1139.4021 1068.192383 1125.076172 1156.854004 1054.407471 C 1186.79248 1030.549805 1229.53125 1072.789307 1199.317871 1096.871826 Z M 517.320313 810.208984 C 519.152344 792.055176 524.193848 774.55127 540.959473 764.449951 C 558.711426 753.755371 580.264648 757.298584 593.780273 772.672363 C 616.336914 798.33667 610.07666 845.029541 597.450195 873.630615 C 589.509766 891.611572 572.237793 905.442139 551.617188 900.904053 C 533.602539 896.937988 522.797363 882.05127 517.320313 865.237305 C 511.286133 846.723145 511.934082 827.836914 517.320313 810.208984 Z M 1110.320801 829.053467 C 1112.153809 810.900635 1117.193359 793.395752 1133.960449 783.294434 C 1151.712891 772.599121 1173.266113 776.143066 1186.78125 791.515869 C 1209.337891 817.182129 1203.07666 863.873047 1190.45166 892.473145 C 1182.51123 910.457031 1165.238281 924.285645 1144.618164 919.747803 C 1126.602539 915.781494 1115.797363 900.89502 1110.320801 884.081787 C 1104.286133 865.565918 1104.934082 846.682617 1110.320801 829.053467 Z M 1325.884766 1079.066895 C 1303.83252 1075.725098 1283.160156 1060.143799 1277.695313 1037.786621 C 1276.855957 1034.354492 1276.475586 1030.898926 1276.312012 1027.444336 C 1272.255859 1002.543945 1280.328125 973.933594 1297.80957 957.432861 C 1333.48877 923.750488 1391.489258 949.245117 1402.312012 993.561523 C 1413.729492 1040.300293 1374.262207 1086.395996 1325.884766 1079.066895 Z M 387.050781 623.674316 C 727.559082 607.431885 1068.491211 606.973145 1409.043945 622.295898 C 1447.595703 624.03125 1447.681152 684.084961 1409.043945 682.347412 C 1256.595703 675.488037 1104.070801 671.970459 951.541992 671.4375 C 878.07666 768.493408 817.374023 873.284668 770.82373 985.491699 C 820.972168 986.616699 871.124023 987.740967 921.275391 988.865967 C 959.921875 989.733643 959.934082 1049.78418 921.275391 1048.915527 C 856.501953 1047.464844 791.729492 1046.01123 726.95459 1044.55957 C 709.078613 1044.157715 690.796387 1025.438232 698.000488 1006.552002 C 743.613281 886.990234 803.218262 775.02832 877.521484 671.345703 C 713.993164 671.868652 550.47168 675.930664 387.050781 683.72583 C 348.354492 685.572021 348.575195 625.510498 387.050781 623.674316 Z M 308.474121 915.520996 C 344.152344 881.839844 402.154297 907.334229 412.976563 951.650879 C 424.394531 998.389404 384.926758 1044.485352 336.549316 1037.156006 C 314.496582 1033.816406 293.824707 1018.23291 288.360352 995.876953 C 287.52002 992.445801 287.139648 988.988037 286.975586 985.534424 C 282.919922 960.634277 290.992676 932.022949 308.474121 915.520996 Z"/>
</svg>
