<?xml version="1.0" encoding="UTF-8"?>
<!-- Generated by Pixelmator Pro 3.7.1 -->
<svg width="1556" height="1430" viewBox="0 0 1556 1430" xmlns="http://www.w3.org/2000/svg">
    <path id="Path" fill="#ff79bf" stroke="none" d="M 550.978271 1420.367676 C 723.594482 1448.664551 896.724121 1408.265625 1054.223145 1337.278809 C 1207.456299 1268.214355 1369.049805 1168.069336 1470.613281 1031.422363 C 1581.73584 881.914063 1571.501953 694.734863 1508.084473 527.756836 C 1474.955078 440.529297 1431.96875 356.021484 1382.896729 276.690918 C 1336.361328 201.460938 1278.686035 135.159668 1198.736084 94.609375 C 1039.287109 13.737305 834.96875 -11.958984 658.596313 6.307129 C 487.006226 24.078125 322.525757 88.442871 197.103394 209.092285 C 69.217529 332.111328 -14.012939 508.753906 2.123779 688.47998 C 7.85791 752.356445 23.985352 813.043457 47.385376 870.884277 C 72.627441 1137.697754 280.608765 1376.04541 550.978271 1420.367676 Z M 1309.035156 670.762207 C 1367.739502 697.450684 1362.605469 790.05957 1297.552734 804.537598 C 1269.493164 810.783203 1237.95752 798.978027 1223.68042 773.375977 C 1216.70166 760.862793 1214.418457 746.601074 1216.170166 732.873535 C 1214.02832 690.455566 1262.107178 649.42627 1309.035156 670.762207 Z M 1031.140869 572.305664 C 1033.862061 567.925293 1037.302002 565.035156 1041.025391 563.17334 C 1047.892822 557.104004 1056.61792 553.180664 1067.35791 552.674316 C 1110.20166 550.656738 1119.441406 599.399902 1114.383789 631.995605 C 1108.837402 667.753906 1071.700928 698.672363 1037.199463 674.194824 C 1004.428711 650.943848 1012.762695 601.885254 1031.140869 572.305664 Z M 648.5979 730.697266 C 694.156616 662.172363 734.088745 590.759766 768.613281 516.063965 C 781.95752 487.194824 824.540771 512.328613 811.285889 541.007813 C 781.778687 604.845215 748.06665 666.152344 710.52417 725.441406 C 736.280762 729.273438 762.07959 731.243164 788.472046 731.262207 C 820.322021 731.285156 820.27124 780.702637 788.472046 780.681152 C 746.016357 780.648926 704.82959 776.026367 663.364136 766.996582 C 648.319946 763.719727 640.048706 743.558594 648.5979 730.697266 Z M 439.332397 554.285645 C 442.054932 549.905273 445.494141 547.014648 449.218384 545.15332 C 456.08374 539.083496 464.810791 535.160156 475.548828 534.654297 C 518.394531 532.63623 527.63208 581.379395 522.57666 613.975098 C 517.029541 649.733887 479.892456 680.651855 445.391235 656.174805 C 412.620728 632.92334 420.954956 583.864746 439.332397 554.285645 Z M 387.571655 785.121582 C 613.4375 940.13916 904.775391 942.793457 1133.941162 793.344238 C 1160.6521 775.924805 1183.418457 819.834473 1157.009521 837.057617 C 913.857422 995.627441 599.946655 990.804199 360.802979 826.670898 C 334.609619 808.693848 361.276611 767.073242 387.571655 785.121582 Z M 286.071289 645.262207 C 344.775024 671.950684 339.642944 764.55957 274.59082 779.037598 C 246.530762 785.283203 214.99292 773.478027 200.716675 747.875977 C 193.737549 735.362793 191.45459 721.100098 193.205322 707.373535 C 191.064209 664.955566 239.143311 623.92627 286.071289 645.262207 Z"/>
</svg>
