<?xml version="1.0" encoding="UTF-8"?>
<!-- Generated by Pixelmator Pro 3.7.1 -->
<svg width="1672" height="1675" viewBox="0 0 1672 1675" xmlns="http://www.w3.org/2000/svg">
    <path id="Path" fill="#ff5700" stroke="none" d="M 1499.833496 312.177246 C 1445.179199 227.941406 1377.893066 142.634277 1287.114746 95.629883 C 1193.183594 46.994629 1080.512695 29.986816 977.092773 13.558105 C 864.426758 -4.339355 750.407959 -8.157715 642.28125 33.454102 C 532.504639 75.70166 419.909424 133.712891 323.640137 201.401855 C 231.935791 265.882813 159.537842 348.130371 114.335449 451.240234 C 86.80542 514.036133 69.116455 579.864258 57.153564 646.919434 C -47.941895 939.67041 -17.721191 1277.95459 228.933838 1498.266113 C 294.611816 1556.929199 370.588379 1603.1875 454.078369 1631.622559 C 547.049072 1663.287598 640.688477 1663.938965 737.216309 1652.237305 C 792.428711 1645.543457 846.753906 1640.45166 902.352051 1645.058594 C 963.469727 1650.122559 1023.695801 1662.813965 1084.591797 1669.834961 C 1188.625 1681.830078 1292.122559 1670.280273 1379.388672 1608.477051 C 1529.852539 1501.916016 1611.67627 1308.865723 1648.271973 1133.716309 C 1687.458496 946.166016 1677.425293 748.006836 1618.910645 565.499023 C 1590.39209 476.549316 1550.699219 390.572754 1499.833496 312.177246 Z M 1038.506348 675.112305 C 1060.638672 654.623535 1100.597168 652.822266 1128.995117 652.428223 C 1163.685059 651.948242 1269.07373 659.527832 1234.912109 722.085449 C 1223.577148 742.840332 1200.031738 751.429688 1173.251465 753.484375 C 1151.634766 758.439453 1129.446289 760.467285 1107.061035 758.841309 C 1083.516602 757.131348 1050.211914 753.88623 1033.827637 734.205078 C 1019.132813 716.554199 1021.658203 690.708984 1038.506348 675.112305 Z M 1148.748047 922.963867 C 1136.846191 933.791992 1119.404297 936.820801 1104.947266 929.382813 C 1091.162109 922.291992 1085.777832 907.704102 1084.317383 893.148926 C 1081.671387 866.757324 1092.213867 828.213867 1124.677734 826.990234 C 1132.32959 826.70166 1139.232422 828.989258 1145.07373 832.90332 C 1150.780273 834.54248 1155.851563 838.022461 1158.396484 843.524414 C 1170.06543 868.741699 1170.947266 902.765137 1148.748047 922.963867 Z M 818.544678 786.841797 L 818.911621 1058.506348 C 840.462402 1059.165039 861.740723 1061.123047 883.326172 1064.108398 C 913.972656 1068.34668 900.851563 1114.791504 870.510742 1110.596191 C 845.1875 1107.095215 820.342041 1106.078613 794.8396 1106.516602 C 781.763916 1106.740234 770.75293 1095.276367 770.734619 1082.411133 C 770.601807 983.888184 770.468262 885.365234 770.334961 786.841797 C 770.293213 755.768066 818.50293 755.82373 818.544678 786.841797 Z M 542.731689 657.250488 C 571.129395 657.643555 611.087158 659.444336 633.220459 679.933594 C 650.068359 695.529297 652.592773 721.375 637.898682 739.026367 C 621.51416 758.70752 588.209229 761.952148 564.665771 763.662109 C 542.279297 765.288086 520.092041 763.260254 498.475586 758.305664 C 471.695068 756.250488 448.147461 747.661133 436.814453 726.906738 C 402.652832 664.348633 508.041748 656.769043 542.731689 657.250488 Z M 587.408936 897.970215 C 585.94873 912.524902 580.564453 927.113281 566.779785 934.203613 C 552.32251 941.641602 534.880859 938.613281 522.97876 927.784668 C 500.779053 907.586426 501.661377 873.5625 513.329834 848.345703 C 515.875488 842.84375 520.945313 839.362793 526.65332 837.724121 C 532.494141 833.810059 539.397461 831.522949 547.049072 831.811523 C 579.512451 833.035156 590.05542 871.578125 587.408936 897.970215 Z M 420.126709 1076.671875 C 414.694092 1073.119629 410.322266 1068.797852 406.89917 1064.004883 C 374.97583 1032.34082 403.952148 972.164551 450.589844 973.736816 C 500.879395 975.433105 522.256592 1040.405762 483.928711 1072.119629 C 465.925537 1087.016113 440.061523 1089.709473 420.126709 1076.671875 Z M 1203.577637 1142.90918 C 995.798828 1318.835938 697.902588 1319.908691 488.400391 1146.084961 C 464.490234 1126.247559 498.77832 1092.322266 522.488281 1111.995605 C 710.548096 1268.025879 983.097656 1266.636719 1169.486816 1108.819336 C 1193.041016 1088.875977 1227.288086 1122.833008 1203.577637 1142.90918 Z M 1264.827637 1059.184082 C 1261.404297 1063.976563 1257.032227 1068.298828 1251.600098 1071.850586 C 1231.664063 1084.888672 1205.801758 1082.194824 1187.79834 1067.298828 C 1149.470215 1035.584961 1170.847656 970.611816 1221.136719 968.916016 C 1267.774414 967.34375 1296.750977 1027.520508 1264.827637 1059.184082 Z"/>
</svg>
