<?xml version="1.0" encoding="UTF-8"?>
<!-- Generated by Pixelmator Pro 3.7.1 -->
<svg width="1475" height="1428" viewBox="0 0 1475 1428" xmlns="http://www.w3.org/2000/svg">
    <path id="Path" fill="#ffba00" stroke="none" d="M 303.322266 1315.57666 C 455.603027 1402.421875 633.498047 1429.966797 806.814453 1427.164063 C 975.580078 1424.435547 1159.606934 1409.826172 1289.677246 1290.351563 C 1403.012207 1186.251953 1458.686523 1032.885254 1471.73877 882.526367 C 1480.101563 786.182617 1471.077637 689.533691 1456.976563 594.177246 C 1443.402344 502.38623 1428.919434 407.826172 1403.032715 318.578125 C 1357.820801 162.703613 1238.710449 58.795898 1082.706055 19.452637 C 909.158203 -24.313965 721.594238 15.111816 550.555664 53.189453 C 458.802246 73.615723 371.706055 107.685547 305.888184 177.17334 C 241.96875 244.657227 195.080566 330.477539 149.015625 410.556641 C 111.949707 474.988281 78.894043 544.543457 57.666992 616.20752 C -3.078125 724.188477 -15.489746 854.141113 19.235352 975.081543 C 61.481934 1122.220215 172.279785 1240.844238 303.322266 1315.57666 Z M 1005.433105 971.22168 C 825.156738 1094.923828 591.158203 1100.800781 404.184082 987.83252 C 381.25 973.978027 402.203613 937.986328 425.197266 951.878906 C 600.355957 1057.708496 815.896484 1050.90332 984.419922 935.268555 C 1006.592773 920.054199 1027.391602 956.154785 1005.433105 971.22168 Z M 474.192383 610.61377 C 475.351074 607.961914 477.22168 605.856934 479.486328 604.253418 C 483.410645 598.977539 488.786133 594.888184 496.166992 592.901367 C 508.767578 589.511719 522.479492 595.598145 529.311035 606.560547 C 536.02832 617.347168 535.38916 630.354492 532.612305 642.26416 C 529.086426 657.415039 516.685059 678.547852 501.167969 683.796875 C 496.031738 685.533691 490.563965 685.472656 484.949707 682.912598 C 482.255371 681.683594 479.540039 679.996094 476.807617 677.506836 C 458.379395 660.712402 465.519531 630.450195 474.192383 610.61377 Z M 912.092285 620.330566 C 913.251953 617.677734 915.118652 615.573242 917.387207 613.969238 C 921.310547 608.693359 926.682617 604.604492 934.062988 602.618164 C 946.66748 599.226563 960.375 605.313965 967.207031 616.276855 C 973.923828 627.062012 973.285156 640.070313 970.512207 651.97998 C 965.254883 674.552734 940.337402 710.579102 914.70752 687.222656 C 896.274902 670.429199 903.418945 640.166016 912.092285 620.330566 Z M 1059.600098 844.914063 C 1061.950684 819.640137 1083.624512 799.162109 1108.655762 796.860352 C 1164.099121 791.762207 1191.924316 865.499023 1146.800781 898.151367 C 1126.977539 912.49707 1098.799805 912.869629 1079.760742 896.872559 C 1071.238281 889.709961 1066.232422 880.411621 1064.357422 870.630859 C 1060.563477 862.726074 1058.770996 853.855469 1059.600098 844.914063 Z M 431.59375 484.706543 C 628.401855 479.678223 825.253418 477.304199 1022.125488 477.586426 C 1048.958496 477.625 1048.917969 519.263672 1022.125488 519.225586 C 939.414551 519.106445 856.702637 519.564941 773.99707 520.384277 C 773.725586 520.872559 773.556641 521.355957 773.233398 521.848145 C 737.413574 576.580566 705.334473 633.308594 677.098633 691.949707 C 660.353516 726.727051 644.95166 762.174805 630.93457 798.288574 C 671.597656 798.825195 712.237793 798.445801 752.902344 797.055664 C 779.747559 796.139648 779.625488 837.781738 752.902344 838.694824 C 702.248047 840.424805 651.633789 840.661621 600.966309 839.404297 C 588.429688 839.093262 576.072266 826.20166 580.891113 813.05127 C 596.216797 771.225098 613.364746 730.253418 632.144531 690.084961 C 659.370117 631.849121 690.130859 575.354492 724.605469 520.827637 C 626.924805 522.015625 529.254395 523.849609 431.59375 526.345703 C 404.744629 527.03125 404.850586 485.390137 431.59375 484.706543 Z M 305.944824 850.465332 C 308.293945 825.192871 329.966309 804.712891 354.999023 802.411621 C 410.441406 797.313965 438.26709 871.049805 393.144043 903.704102 C 373.320801 918.048828 345.141602 918.421387 326.10498 902.425293 C 317.580078 895.26123 312.575195 885.962891 310.700684 876.183594 C 306.907227 868.278809 305.11377 859.408203 305.944824 850.465332 Z"/>
</svg>
