<svg width="105" height="106" viewBox="0 0 105 106" fill="none" xmlns="http://www.w3.org/2000/svg">
<g clip-path="url(#clip0_189_35427)">
<path d="M0.269208 46.5121C-0.0700636 49.8017 -0.0700636 53.1707 0.1714 56.5213C1.01194 68.195 3.48159 81.4207 12.1284 89.942C20.3565 98.0487 31.9682 101.347 42.8463 104.216C49.5706 105.991 55.7478 106.893 62.5088 104.744C68.4475 102.854 74.154 99.5304 79.2492 95.9877C98.2423 82.7743 110.337 59.7987 102.665 36.8017C98.7619 25.1036 90.0448 17.2316 78.9038 12.3993C72.1673 9.47858 65.1679 7.07919 58.1624 4.89626C51.6521 2.87187 44.9553 0.71943 38.1332 0.127966C23.9204 -1.10374 12.3454 6.58833 5.884 18.9389C1.42151 27.4694 0.253926 36.9725 0.269208 46.5121ZM82.9934 50.2164C86.7988 51.942 86.4656 57.9328 82.2476 58.8688C80.429 59.2743 78.3842 58.5091 77.4581 56.8536C77.0057 56.0456 76.859 55.1219 76.9721 54.2347C76.8346 51.4908 79.9522 48.8383 82.9934 50.2164ZM64.9753 43.8475C65.1526 43.5639 65.3757 43.378 65.6172 43.256C66.0635 42.8627 66.6289 42.6097 67.3258 42.5761C70.1042 42.445 70.7032 45.5975 70.3762 47.7072C70.0155 50.0213 67.607 52.0213 65.3727 50.4359C63.2484 48.9328 63.7894 45.7591 64.9784 43.8444L64.9753 43.8475ZM40.1688 54.0914C43.1214 49.6585 45.7133 45.0396 47.9506 40.2103C48.8156 38.3444 51.5756 39.9694 50.7168 41.8231C48.8034 45.9511 46.618 49.9176 44.182 53.753C45.8508 53.9999 47.5258 54.128 49.2374 54.128C51.3036 54.128 51.3006 57.3261 49.2374 57.3231C46.4835 57.3231 43.8152 57.0213 41.1255 56.4389C40.1504 56.2255 39.6125 54.9237 40.1688 54.0914ZM26.601 42.6798C26.7782 42.3963 27.0014 42.2103 27.2428 42.0883C27.6891 41.695 28.2545 41.442 28.9514 41.4085C31.7298 41.2774 32.3289 44.4298 32.0018 46.5396C31.6411 48.8536 29.2326 50.8536 26.9983 49.2682C24.874 47.7652 25.415 44.5914 26.604 42.6767L26.601 42.6798ZM23.2449 57.6097C37.8917 67.6371 56.7809 67.8078 71.6416 58.1402C73.3746 57.0121 74.8509 59.8536 73.1362 60.9664C57.3708 71.2225 37.0145 70.9115 21.5088 60.2957C19.8094 59.1341 21.5394 56.442 23.2449 57.6097ZM16.6643 48.5639C20.4696 50.2896 20.1365 56.2804 15.9185 57.2164C14.0999 57.6219 12.0551 56.8566 11.129 55.2011C10.6766 54.3932 10.5268 53.4694 10.643 52.5822C10.5054 49.8383 13.6231 47.1859 16.6643 48.5639Z" fill="#22D3EE"/>
<path d="M21.5061 60.3017C37.0117 70.9176 57.368 71.2286 73.1335 60.9725C74.8451 59.8597 73.3688 57.0182 71.6388 58.1463C56.7781 67.8139 37.8889 67.6402 23.2422 57.6158C21.5366 56.4481 19.8067 59.1402 21.5061 60.3017Z" fill="#0E0500"/>
<path d="M65.3635 50.4392C67.6009 52.0215 70.0094 50.0215 70.367 47.7105C70.6941 45.6007 70.095 42.4483 67.3166 42.5794C66.6198 42.6129 66.0543 42.866 65.6081 43.2593C65.3666 43.3782 65.1435 43.5672 64.9662 43.8507C63.7742 45.7654 63.2332 48.9361 65.3605 50.4422L65.3635 50.4392Z" fill="#0E0500"/>
<path d="M26.9895 49.2714C29.2269 50.8537 31.6354 48.8537 31.993 46.5428C32.3201 44.433 31.721 41.2806 28.9426 41.4117C28.2457 41.4452 27.6803 41.6983 27.234 42.0916C26.9926 42.2105 26.7694 42.3995 26.5922 42.683C25.4001 44.5977 24.8591 47.7684 26.9865 49.2745L26.9895 49.2714Z" fill="#0E0500"/>
<path d="M77.458 56.8537C78.3841 58.5092 80.4289 59.2744 82.2475 58.869C86.4655 57.933 86.7987 51.9421 82.9933 50.2165C79.949 48.8354 76.8314 51.4909 76.972 54.2348C76.8589 55.122 77.0056 56.0458 77.458 56.8537Z" fill="#FF5800"/>
<path d="M11.126 55.2043C12.0521 56.8598 14.0969 57.625 15.9155 57.2195C20.1335 56.2836 20.4666 50.2927 16.6613 48.5671C13.617 47.186 10.4994 49.8415 10.64 52.5854C10.5269 53.4726 10.6736 54.3964 11.126 55.2043Z" fill="#FF5800"/>
<path d="M41.125 56.4421C43.8148 57.0274 46.4831 57.3262 49.237 57.3262C51.3001 57.3262 51.3032 54.1311 49.237 54.1311C47.5253 54.1311 45.8534 54.0031 44.1815 53.7561C46.6145 49.9207 48.803 45.9573 50.7163 41.8262C51.5752 39.9726 48.8152 38.3445 47.9502 40.2134C45.7128 45.0457 43.1209 49.6646 40.1683 54.0945C39.6151 54.9268 40.15 56.2317 41.125 56.4421Z" fill="#0E0500"/>
</g>
<defs>
<clipPath id="clip0_189_35427">
<rect width="105" height="106" fill="white"/>
</clipPath>
</defs>
</svg>
