<svg width="106" height="106" viewBox="0 0 106 106" fill="none" xmlns="http://www.w3.org/2000/svg">
<g clip-path="url(#clip0_189_35449)">
<path d="M3.61865 40.9334C-3.03818 59.4785 -1.12454 80.9087 14.5013 94.8638C18.6612 98.5802 23.4757 101.51 28.7626 103.313C34.6513 105.319 40.585 105.361 46.6981 104.619C50.1954 104.194 53.6373 103.872 57.1584 104.165C61.0306 104.487 64.8447 105.29 68.7036 105.736C75.2945 106.496 81.851 105.765 87.3782 101.848C96.9094 95.0987 102.093 82.8672 104.411 71.7734C106.892 59.893 106.259 47.3394 102.55 35.7784C100.745 30.1431 98.2292 24.6977 95.0063 19.7302C91.5433 14.3931 87.2805 8.99004 81.5316 6.01267C75.5822 2.93237 68.445 1.85545 61.8911 0.81284C54.7538 -0.322148 47.5322 -0.562343 40.6826 2.07189C33.7275 4.74835 26.5956 8.42254 20.4983 12.7117C14.6888 16.7977 10.1039 22.0055 7.24006 28.5382C5.49534 32.516 4.37619 36.6864 3.61865 40.9334ZM80.1221 67.0487C79.9057 67.3522 79.6286 67.6267 79.2854 67.8511C78.0237 68.6772 76.3846 68.5057 75.2443 67.5634C72.816 65.5547 74.1701 61.4397 77.3559 61.3315C80.3096 61.2312 82.1467 65.0426 80.1248 67.0487H80.1221ZM65.7843 42.7177C67.1859 41.419 69.7172 41.3055 71.5174 41.2818C73.7161 41.2501 80.3914 41.7305 78.227 45.695C77.509 47.0095 76.0177 47.5532 74.3205 47.6852C72.9506 47.9993 71.5464 48.1287 70.1263 48.0257C68.635 47.9175 66.526 47.7116 65.4861 46.4658C64.5543 45.3466 64.7153 43.7101 65.7817 42.7229L65.7843 42.7177ZM72.7685 58.4175C72.0136 59.1037 70.9103 59.2964 69.9944 58.8239C69.1207 58.3752 68.7802 57.4514 68.6878 56.5276C68.5189 54.8568 69.1893 52.4152 71.2455 52.336C71.7312 52.3176 72.1667 52.4627 72.5362 52.7108C72.8978 52.8138 73.2198 53.0355 73.3809 53.3839C74.1199 54.9808 74.1753 57.1373 72.7685 58.4175ZM74.083 70.1923C75.5743 68.928 77.744 71.0792 76.2421 72.3514C63.0788 83.4954 44.209 83.5641 30.9376 72.552C29.4225 71.2956 31.5948 69.1471 33.0967 70.3929C45.0088 80.2779 62.2764 80.1881 74.083 70.1923ZM32.516 53.6927C32.677 53.3443 32.999 53.1226 33.3606 53.0197C33.7302 52.7716 34.1683 52.6264 34.6513 52.6449C36.7075 52.7214 37.3753 55.1629 37.209 56.8364C37.1166 57.7576 36.7762 58.6814 35.9025 59.1328C34.9866 59.6052 33.8806 59.4126 33.1284 58.7263C31.7215 57.4461 31.7769 55.2923 32.516 53.6927ZM51.8504 49.7968L51.8741 67.0064C53.2388 67.0487 54.5876 67.1727 55.9548 67.3601C57.8975 67.6293 57.0661 70.5698 55.1418 70.3058C53.537 70.0841 51.9639 70.0207 50.3485 70.0471C49.5197 70.0603 48.8229 69.3345 48.8202 68.5189C48.8123 62.2764 48.8044 56.0366 48.7938 49.7942C48.7938 47.8251 51.8451 47.8304 51.8477 49.7942L51.8504 49.7968ZM34.3768 41.588C36.177 41.6117 38.7083 41.7279 40.1099 43.0238C41.1762 44.011 41.3372 45.6502 40.4055 46.7667C39.3682 48.0125 37.2565 48.2184 35.7652 48.3266C34.3478 48.4296 32.9409 48.3002 31.571 47.9861C29.8738 47.8568 28.3825 47.313 27.6646 45.9959C25.5002 42.034 32.1755 41.5536 34.3742 41.5827L34.3768 41.588ZM28.5409 61.6377C31.7268 61.7459 33.0808 65.8609 30.6525 67.8695C29.5122 68.8145 27.8731 68.9834 26.6114 68.1572C26.2683 67.9329 25.9911 67.6584 25.7747 67.3548C23.7528 65.3488 25.5873 61.5374 28.5435 61.6377H28.5409Z" fill="#F97316"/>
<path d="M50.3509 70.0472C51.9662 70.0181 53.5394 70.0841 55.1442 70.3058C57.0658 70.5724 57.8972 67.6294 55.9572 67.3601C54.5899 67.1701 53.2411 67.046 51.8765 67.0064L51.8527 49.7968C51.8501 47.8331 48.7962 47.8278 48.7988 49.7968C48.8067 56.0393 48.8147 62.2791 48.8252 68.5215C48.8252 69.3371 49.5247 70.063 50.3535 70.0498L50.3509 70.0472Z" fill="#0E0500"/>
<path d="M35.9027 59.1301C36.7764 58.6814 37.1169 57.7576 37.2093 56.8337C37.3782 55.1629 36.7104 52.7214 34.6516 52.6422C34.1659 52.6237 33.7304 52.7689 33.3609 53.017C32.9992 53.12 32.6772 53.3417 32.5162 53.6901C31.7772 55.287 31.7217 57.4435 33.1286 58.7236C33.8835 59.4099 34.9868 59.6026 35.9027 59.1301Z" fill="#0E0500"/>
<path d="M33.0998 70.393C31.5979 69.1472 29.4256 71.2957 30.9407 72.5521C44.2121 83.5641 63.0846 83.4955 76.2452 72.3515C77.7471 71.0793 75.5774 68.9281 74.0861 70.1924C62.2796 80.1909 45.0119 80.278 33.0998 70.393Z" fill="#0E0500"/>
<path d="M26.6136 68.1573C27.8753 68.9834 29.5144 68.8119 30.6547 67.8696C33.083 65.8609 31.7289 61.7459 28.5431 61.6377C25.5894 61.5374 23.7524 65.3488 25.7742 67.3549C25.9907 67.6584 26.2678 67.9329 26.6109 68.1573H26.6136Z" fill="#FF0882"/>
<path d="M31.576 47.9887C32.9459 48.3028 34.3501 48.4321 35.7702 48.3292C37.2615 48.2209 39.3705 48.0151 40.4104 46.7692C41.3422 45.6501 41.1812 44.0136 40.1148 43.0264C38.7132 41.7278 36.1819 41.6143 34.3818 41.5905C32.1831 41.5588 25.5078 42.0392 27.6722 46.0038C28.3901 47.3182 29.8814 47.862 31.5786 47.9939L31.576 47.9887Z" fill="#0E0500"/>
<path d="M72.5388 52.7135C72.1692 52.4654 71.7311 52.3203 71.248 52.3387C69.1919 52.4153 68.5241 54.8568 68.6904 56.5303C68.7827 57.4515 69.1232 58.3753 69.9969 58.8266C70.9128 59.2991 72.0188 59.1064 72.771 58.4202C74.1779 57.14 74.1225 54.9862 73.3834 53.3866C73.2224 53.0382 72.9004 52.8165 72.5388 52.7135Z" fill="#0E0500"/>
<path d="M75.2441 67.5634C76.3844 68.5084 78.0235 68.6773 79.2852 67.8511C79.6284 67.6268 79.9055 67.3522 80.1219 67.0487C82.1438 65.0427 80.3094 61.2312 77.3531 61.3315C74.1672 61.4398 72.8132 65.5547 75.2415 67.5634H75.2441Z" fill="#FF0882"/>
<path d="M70.1287 48.0232C71.5461 48.1261 72.953 47.9968 74.3229 47.6827C76.0201 47.5534 77.5114 47.0096 78.2294 45.6925C80.3938 41.7306 73.7185 41.2502 71.5197 41.2793C69.7196 41.303 67.1883 41.4192 65.7867 42.7151C64.7204 43.7023 64.5594 45.3415 65.4911 46.458C66.5284 47.7038 68.64 47.9097 70.1314 48.0179L70.1287 48.0232Z" fill="#0E0500"/>
</g>
<defs>
<clipPath id="clip0_189_35449">
<rect width="105.9" height="106" fill="white"/>
</clipPath>
</defs>
</svg>
