<svg width="114" height="106" viewBox="0 0 114 106" fill="none" xmlns="http://www.w3.org/2000/svg">
<g clip-path="url(#clip0_189_35438)">
<path d="M67.174 0.171324C60.2787 0.40247 53.3804 0.759696 46.5598 1.8704C32.6974 4.12782 20.2314 10.3508 11.9965 22.0311C10.4924 24.1625 9.18574 26.4169 8.06144 28.7494C3.36688 36.1491 1.27974 45.0977 0.418574 53.8603C-0.774502 65.9819 0.0896551 79.7396 9.61932 88.5022C14.5322 93.02 20.7846 96.127 26.7948 98.8827C32.9097 101.683 39.2818 104.025 45.9199 105.181C52.6329 106.351 59.57 106.393 66.1693 104.529C72.5474 102.728 78.1988 99.1979 83.4017 95.1664C102.446 80.412 119.885 55.2141 111.067 30.0972C107.015 18.5579 98.9027 5.08243 86.5204 1.46214C80.265 -0.37202 73.6059 -0.0448126 67.174 0.171324ZM50.8657 43.942C52.0707 41.8347 55.315 43.7349 54.11 45.8452C52.277 49.0572 50.8836 52.4314 50.0553 56.0456C49.9357 56.568 49.0656 59.2967 49.4124 59.726C49.7204 60.1042 49.9776 59.8731 50.6175 59.9031C52.1754 59.9721 53.8319 59.6809 55.3898 59.5759C57.8088 59.4108 57.7909 63.1842 55.3898 63.3493C52.0169 63.5804 45.6448 65.3185 45.6389 60.0772C45.6329 54.5507 48.1805 48.646 50.8657 43.945V43.942ZM26.9922 66.6453C25.3087 66.5343 23.7419 65.3455 23.3472 63.6705C23.2844 63.4063 23.2664 63.1331 23.2694 62.8599C23.1977 62.4817 23.1797 62.0885 23.2246 61.6892C23.6432 58.1049 28.2361 56.7691 30.7 59.2907C33.4539 62.1065 30.7 66.8975 26.9922 66.6483V66.6453ZM37.1259 50.8433C36.9913 51.3687 36.7013 51.7169 36.3454 51.93C36.0763 52.2332 35.7294 52.4824 35.2959 52.6415C32.835 53.5451 31.4386 50.7503 31.2263 48.733C31.005 46.6077 32.8439 44.7225 35.0088 45.3979C37.398 46.1424 37.6611 48.766 37.1259 50.8433ZM70.0805 70.7189C60.8349 79.1182 47.1369 78.83 38.3548 69.8844C36.6534 68.1523 39.3117 65.4836 41.0131 67.2157C48.321 74.6574 59.6747 75.0897 67.4252 68.0502C69.2163 66.4232 71.8806 69.0859 70.0835 70.7189H70.0805ZM76.3299 48.733C76.1206 50.7533 74.7212 53.5481 72.2603 52.6415C71.8237 52.4824 71.4799 52.2332 71.2108 51.93C70.8549 51.7169 70.5649 51.3687 70.4303 50.8433C69.8951 48.763 70.1582 46.1424 72.5474 45.3979C74.7122 44.7225 76.5512 46.6077 76.3299 48.733ZM80.4504 65.9789C78.7669 65.8678 77.2001 64.6791 76.8054 63.004C76.7426 62.7399 76.7246 62.4667 76.7276 62.1935C76.6559 61.8153 76.6379 61.422 76.6828 61.0228C77.1014 57.4385 81.6943 56.1027 84.1582 58.6243C86.9121 61.443 84.1582 66.2311 80.4504 65.9819V65.9789Z" fill="#A3E635"/>
<path d="M55.3896 63.3462C57.7907 63.1811 57.8087 59.4077 55.3896 59.5728C53.8317 59.6809 52.1752 59.9691 50.6173 59.9001C49.9774 59.873 49.7203 60.1012 49.4123 59.7229C49.0654 59.2967 49.9355 56.5649 50.0552 56.0426C50.8804 52.4283 52.2739 49.0542 54.1098 45.8422C55.3149 43.7318 52.0675 41.8286 50.8655 43.939C48.1803 48.6399 45.6327 54.5447 45.6387 60.0712C45.6447 65.3125 52.0167 63.5744 55.3896 63.3432V63.3462Z" fill="#0E0500"/>
<path d="M67.4217 68.0471C59.6712 75.0866 48.3176 74.6573 41.0096 67.2126C39.3082 65.4805 36.6529 68.1492 38.3513 69.8813C47.1335 78.8269 60.8314 79.1121 70.077 70.7158C71.8741 69.0828 69.2099 66.4201 67.4188 68.0471H67.4217Z" fill="#0E0500"/>
<path d="M76.6859 61.0166C76.6381 61.4158 76.659 61.8091 76.7308 62.1873C76.7308 62.4605 76.7457 62.7337 76.8085 62.9978C77.2032 64.6759 78.7701 65.8616 80.4535 65.9727C84.1643 66.2189 86.9153 61.4308 84.1613 58.615C81.6974 56.0935 77.1046 57.4293 76.6859 61.0136V61.0166Z" fill="#FF5800"/>
<path d="M23.225 61.686C23.1771 62.0853 23.1981 62.4785 23.2698 62.8567C23.2698 63.1299 23.2848 63.4031 23.3476 63.6673C23.7423 65.3453 25.3091 66.5311 26.9926 66.6421C30.7034 66.8883 33.4544 62.1003 30.7004 59.2845C28.2365 56.7629 23.6436 58.0987 23.225 61.683V61.686Z" fill="#FF5800"/>
<path d="M72.5471 45.3949C70.158 46.1393 69.8949 48.763 70.4301 50.8403C70.5647 51.3656 70.8547 51.7139 71.2105 51.927C71.4797 52.2302 71.8265 52.4793 72.2601 52.6384C74.721 53.542 76.1174 50.7472 76.3297 48.73C76.551 46.6046 74.712 44.7194 72.5471 45.3949Z" fill="#0E0500"/>
<path d="M35.0087 45.3949C32.8438 44.7194 31.0048 46.6046 31.2261 48.73C31.4354 50.7502 32.8348 53.545 35.2957 52.6384C35.7323 52.4793 36.0762 52.2302 36.3453 51.927C36.7011 51.7139 36.9912 51.3656 37.1257 50.8403C37.6609 48.76 37.3978 46.1393 35.0087 45.3949Z" fill="#0E0500"/>
</g>
<defs>
<clipPath id="clip0_189_35438">
<rect width="113.42" height="106" fill="white"/>
</clipPath>
</defs>
</svg>
