<svg width="279" height="38" viewBox="0 0 279 38" fill="none" xmlns="http://www.w3.org/2000/svg">
<g clip-path="url(#clip0_159_13531)">
<path d="M211.856 10.4025C204.245 10.4025 198.073 16.5356 198.073 24.102C198.073 31.6685 204.243 37.8016 211.856 37.8016C219.468 37.8016 225.639 31.6685 225.639 24.102C225.639 16.5356 219.468 10.4025 211.856 10.4025ZM211.856 32.4634C207.209 32.4634 203.444 28.7193 203.444 24.102C203.444 19.4847 207.211 15.7406 211.856 15.7406C216.501 15.7406 220.268 19.4847 220.268 24.102C220.268 28.7193 216.501 32.4634 211.856 32.4634Z" fill="white"/>
<path d="M152.72 37.4453V20.6387C152.72 14.9848 148.11 10.4039 142.423 10.4039C136.737 10.4039 132.126 14.9862 132.126 20.6387V37.4453H138.253V20.6387C138.253 18.3503 140.12 16.4936 142.422 16.4936C144.724 16.4936 146.592 18.3503 146.592 20.6387V37.4453H152.719H152.72Z" fill="white"/>
<path d="M58.1922 37.8002C63.723 37.8002 68.0479 35.0452 68.0479 29.4863V29.3857C68.0479 24.6273 63.6724 22.874 59.8016 21.6725C56.6827 20.6709 53.8168 19.8689 53.8168 17.9648V17.8656C53.8168 16.312 55.1745 15.2111 57.5387 15.2111C59.7524 15.2111 62.4665 16.1625 65.0316 17.7161L67.4449 13.4089C64.6296 11.555 61.0089 10.4039 57.689 10.4039C52.4084 10.4039 48.2354 13.4592 48.2354 18.4677V18.5683C48.2354 23.627 52.6108 25.2309 56.5337 26.3331C59.6512 27.2845 62.4679 27.9859 62.4679 30.0395V30.1387C62.4679 31.892 60.9597 32.9943 58.344 32.9943C55.7283 32.9943 52.511 31.8934 49.6437 29.7392L46.9282 33.8465C50.2467 36.452 54.4212 37.8044 58.1922 37.8044" fill="white"/>
<path d="M80.7456 37.8002C86.2764 37.8002 90.6012 35.0452 90.6012 29.4863V29.3857C90.6012 24.6273 86.2258 22.874 82.3549 21.6725C79.236 20.6709 76.3701 19.8689 76.3701 17.9648V17.8656C76.3701 16.312 77.7279 15.2111 80.092 15.2111C82.3057 15.2111 85.0198 16.1625 87.5849 17.7161L89.9983 13.4089C87.183 11.555 83.5623 10.4039 80.2424 10.4039C74.9618 10.4039 70.7887 13.4592 70.7887 18.4677V18.5683C70.7887 23.627 75.1642 25.2309 79.087 26.3331C82.2045 27.2845 85.0212 27.9859 85.0212 30.0395V30.1387C85.0212 31.892 83.5131 32.9943 80.8974 32.9943C78.2817 32.9943 75.0644 31.8934 72.1971 29.7392L69.4816 33.8465C72.8001 36.452 76.9745 37.8044 80.7456 37.8044" fill="white"/>
<path d="M41.6477 7.4938C39.5885 7.4938 37.9202 5.83549 37.9202 3.7888C37.9202 1.74211 39.5899 0.0838013 41.6477 0.0838013C43.7054 0.0838013 45.3752 1.74211 45.3752 3.7888C45.3752 5.83549 43.7054 7.4938 41.6477 7.4938Z" fill="white"/>
<path d="M44.6007 10.7587H38.6946V37.4453H44.6007V10.7587Z" fill="white"/>
<path d="M96.2389 7.4938C94.1797 7.4938 92.5114 5.83549 92.5114 3.7888C92.5114 1.74211 94.1811 0.0838013 96.2389 0.0838013C98.2966 0.0838013 99.9663 1.74211 99.9663 3.7888C99.9663 5.83549 98.2966 7.4938 96.2389 7.4938Z" fill="white"/>
<path d="M99.1918 10.7587H93.2858V37.4453H99.1918V10.7587Z" fill="white"/>
<path d="M35.0967 37.4453V20.6387C35.0967 14.9862 30.4865 10.4039 24.7997 10.4039C21.9788 10.4039 19.4249 11.5327 17.5654 13.3586C15.7058 11.5327 13.152 10.4039 10.3311 10.4039C4.64423 10.4039 0.0340576 14.9862 0.0340576 20.6387V37.4453H6.16081V20.6387C6.16081 18.3503 8.02737 16.4936 10.3296 16.4936C12.6319 16.4936 14.4985 18.3503 14.4985 20.6387V37.5264V37.4453L20.6252 37.5264V37.4453V20.6387C20.6252 18.3503 22.4918 16.4936 24.7941 16.4936C27.0964 16.4936 28.9643 18.3503 28.9643 20.6387V37.4453H35.0911H35.0967Z" fill="white"/>
<path d="M195.389 0.209534H189.482V37.8016H195.389V0.209534Z" fill="white"/>
<path d="M228.323 10.7042V27.5108C228.323 33.1647 232.933 37.7457 238.62 37.7457C244.307 37.7457 248.917 33.1633 248.917 27.5108V10.7042H242.79V27.5108C242.79 29.7992 240.924 31.6559 238.622 31.6559C236.319 31.6559 234.451 29.7992 234.451 27.5108V10.7042H228.325H228.323Z" fill="white"/>
<path d="M163.271 24.049C163.271 16.0187 169.04 10.3466 177.167 10.3466C182.168 10.3466 186.16 12.5051 188.13 16.5705L183.515 19.3814C181.975 16.822 179.668 15.6666 177.119 15.6666C172.696 15.6666 169.33 18.8785 169.33 24.049C169.33 29.2195 172.696 32.4299 177.119 32.4299C179.668 32.4299 181.975 31.276 183.515 28.7165L188.13 31.5274C186.158 35.5426 182.168 37.8002 177.167 37.8002C169.04 37.8002 163.271 32.0793 163.271 24.049Z" fill="white"/>
<path d="M116.037 37.9358C121.872 37.6354 126.51 32.7624 126.51 26.7956C126.51 20.8288 121.572 15.6345 115.481 15.6415C120.195 15.6359 124.015 19.4513 124.015 24.1398C124.015 28.8283 120.186 32.6381 115.465 32.6381C109.365 32.6381 104.42 27.6436 104.42 21.484C104.42 15.3244 109.383 10.3229 115.46 10.3341C107.785 10.3215 101.571 16.5133 101.571 24.1412C101.571 31.7691 107.792 37.9525 115.467 37.9525C115.659 37.9525 115.849 37.9455 116.039 37.9386L116.037 37.9358Z" fill="url(#paint0_linear_159_13531)"/>
<path d="M114.893 10.3438C109.059 10.6442 104.42 15.5171 104.42 21.4839C104.42 27.6394 109.406 32.6381 115.45 32.6381C110.736 32.6381 106.915 28.8283 106.915 24.1397C106.915 19.4456 110.744 15.6414 115.465 15.6414C121.565 15.6414 126.51 20.6359 126.51 26.7956C126.51 32.9566 121.565 37.9497 115.465 37.9497C123.139 37.9497 129.36 31.7663 129.36 24.1383C129.36 16.5104 123.139 10.327 115.465 10.327C115.273 10.327 115.083 10.334 114.893 10.341V10.3438Z" fill="url(#paint1_linear_159_13531)"/>
<path d="M278.859 23.6256V0.209534H272.953V12.8264C270.723 11.2812 268.011 10.3759 265.086 10.3759C257.475 10.3759 251.304 16.509 251.304 24.0755C251.304 31.642 257.474 37.7751 265.086 37.7751C272.699 37.7751 278.869 31.642 278.869 24.0755C278.869 23.9246 278.866 23.7751 278.861 23.627L278.859 23.6256ZM265.085 32.4369C260.438 32.4369 256.673 28.6928 256.673 24.0755C256.673 19.4582 260.44 15.7141 265.085 15.7141C269.73 15.7141 273.497 19.4582 273.497 24.0755C273.497 28.6928 269.73 32.4369 265.085 32.4369Z" fill="white"/>
</g>
<defs>
<linearGradient id="paint0_linear_159_13531" x1="102.961" y1="18.0374" x2="125.692" y2="31.2401" gradientUnits="userSpaceOnUse">
<stop stop-color="#00A1E1"/>
<stop offset="0.5" stop-color="#005C9D"/>
<stop offset="1" stop-color="#104192"/>
</linearGradient>
<linearGradient id="paint1_linear_159_13531" x1="100.871" y1="24.1397" x2="132.221" y2="24.1397" gradientUnits="userSpaceOnUse">
<stop stop-color="#F97314"/>
<stop offset="0.5" stop-color="#FFA214"/>
<stop offset="1" stop-color="#FFDA13"/>
</linearGradient>
<clipPath id="clip0_159_13531">
<rect width="279" height="38" fill="white"/>
</clipPath>
</defs>
</svg>
