<svg width="302" height="52" viewBox="0 0 302 52" fill="none" xmlns="http://www.w3.org/2000/svg">
<g id="ST Logo">
<path id="Fill 1" fill-rule="evenodd" clip-rule="evenodd" d="M87.4485 20.5764C86.0638 19.4219 84.2927 18.6538 82.4465 18.6538C81.0618 18.6538 79.2145 19.4601 79.2145 21.0773C79.2145 22.7697 81.255 23.4233 82.5622 23.8467L84.4859 24.4239C88.5266 25.6165 91.643 27.656 91.643 32.3513C91.643 35.2375 90.9501 38.1989 88.6423 40.162C86.3715 42.0846 83.3315 42.8931 80.4071 42.8931C76.7517 42.8931 73.1737 41.6623 70.2112 39.5847L73.4432 33.5047C75.3288 35.1589 77.5602 36.5065 80.1376 36.5065C81.9075 36.5065 83.793 35.6216 83.793 33.581C83.793 31.4653 80.8305 30.7342 79.2145 30.2738C74.482 28.9273 71.3657 27.6941 71.3657 22.0779C71.3657 16.191 75.559 12.3424 81.3695 12.3424C84.2927 12.3424 87.8718 13.2667 90.4503 14.7277L87.4485 20.5764Z" fill="white"/>
<path id="Fill 3" fill-rule="evenodd" clip-rule="evenodd" d="M108.293 29.519C107.947 27.542 106.215 26.4026 104.33 26.4026C102.29 26.4026 100.597 27.542 100.173 29.519H108.293ZM114.764 33.4717H100.057C100.057 36.3266 101.559 37.886 104.444 37.886C105.945 37.886 107.022 37.4244 107.792 36.1057H114.525C113.409 40.9376 108.986 42.8937 104.483 42.8937C97.9417 42.8937 93.0554 39.207 93.0554 32.3959C93.0554 25.8172 97.5414 21.8575 103.967 21.8575C110.817 21.8575 114.764 26.0937 114.764 32.8274V33.4717Z" fill="white"/>
<path id="Fill 5" fill-rule="evenodd" clip-rule="evenodd" d="M123.4 26.4541H123.549C124.896 23.5991 127.205 22.72 129.936 22.72H131.306V29.4282C130.208 28.888 129.373 28.7746 128.295 28.7746C124.41 28.7746 123.4 31.3508 123.4 34.7378V42.7046H116.593V22.9409H123.4V26.4541Z" fill="white"/>
<path id="Fill 7" fill-rule="evenodd" clip-rule="evenodd" d="M142.633 33.0605L147.327 22.9409H155.176L144.864 42.7046H140.4L130.051 22.9409H137.901L142.633 33.0605Z" fill="white"/>
<mask id="mask0_159_13556" style="mask-type:luminance" maskUnits="userSpaceOnUse" x="0" y="0" width="302" height="52">
<path id="Clip 10" fill-rule="evenodd" clip-rule="evenodd" d="M0 51.9837H302V0H0V51.9837Z" fill="white"/>
</mask>
<g mask="url(#mask0_159_13556)">
<path id="Fill 9" fill-rule="evenodd" clip-rule="evenodd" d="M155.9 42.7051H163.148V22.9414H155.9V42.7051ZM163.37 16.1673C163.37 18.3212 161.6 20.0911 159.446 20.0911C157.291 20.0911 155.521 18.3212 155.521 16.1673C155.521 14.0122 157.291 12.2423 159.446 12.2423C161.6 12.2423 163.37 14.0122 163.37 16.1673Z" fill="white"/>
<path id="Fill 11" fill-rule="evenodd" clip-rule="evenodd" d="M180.862 28.9406C179.764 28.1714 178.544 27.5559 177.196 27.5559C174.503 27.5559 172.363 29.6335 172.363 32.3647C172.363 35.2127 174.439 37.2128 177.325 37.2128C178.556 37.2128 179.764 36.7142 180.862 35.8663V41.7914C179.105 42.5606 177.582 42.9077 175.888 42.9077C170.041 42.9077 165.129 38.5593 165.129 32.5961C165.129 26.2476 170.014 21.8611 176.208 21.8611C177.825 21.8611 179.545 22.2451 180.862 23.0156V28.9406Z" fill="white"/>
<path id="Fill 12" fill-rule="evenodd" clip-rule="evenodd" d="M197.925 29.519C197.578 27.542 195.847 26.4026 193.962 26.4026C191.922 26.4026 190.229 27.542 189.805 29.519H197.925ZM204.359 33.4717H189.69C189.69 36.3266 191.191 37.886 194.076 37.886C195.577 37.886 196.656 37.4244 197.424 36.1057H204.158C203.042 40.9376 198.618 42.8937 194.114 42.8937C187.574 42.8937 182.688 39.207 182.688 32.3959C182.688 25.8172 187.155 21.8575 193.581 21.8575C200.429 21.8575 204.359 26.0937 204.359 32.8274V33.4717Z" fill="white"/>
<path id="Fill 13" fill-rule="evenodd" clip-rule="evenodd" d="M218.266 42.7045H211.019V20.0859H204.651V13.7166H224.634V20.0859H218.266V42.7045Z" fill="white"/>
<path id="Fill 14" fill-rule="evenodd" clip-rule="evenodd" d="M226.172 42.7051H233.199V22.9414H226.172V42.7051ZM233.61 16.1673C233.61 18.3212 231.841 20.0911 229.686 20.0911C227.532 20.0911 225.76 18.3212 225.76 16.1673C225.76 14.0122 227.532 12.2423 229.686 12.2423C231.841 12.2423 233.61 14.0122 233.61 16.1673Z" fill="white"/>
<path id="Fill 15" fill-rule="evenodd" clip-rule="evenodd" d="M244.617 42.7045H237.59V28.6507H235.394V22.9408H237.59V17.0111H244.617V22.9408H248.57V28.6507H244.617V42.7045Z" fill="white"/>
<path id="Fill 16" fill-rule="evenodd" clip-rule="evenodd" d="M255.63 32.8526C255.63 35.3535 257.284 37.2773 260.131 37.2773C262.978 37.2773 264.633 35.3535 264.633 32.8526C264.633 30.4279 262.978 28.3897 260.131 28.3897C257.284 28.3897 255.63 30.4279 255.63 32.8526ZM271.408 42.7049H264.381V40.5082H264.325C263.094 42.484 260.669 43.3562 258.362 43.3562C252.512 43.3562 248.396 38.4688 248.396 32.8144C248.396 27.1577 252.424 22.3108 258.274 22.3108C260.545 22.3108 262.843 23.1564 264.381 24.8881V22.9412H271.408V42.7049Z" fill="white"/>
<path id="Fill 17" fill-rule="evenodd" clip-rule="evenodd" d="M280.631 25.5753H280.779C282.395 23.1599 284.332 22.3467 287.064 22.3467C292.375 22.3467 294.465 25.6562 294.465 30.5067V42.705H287.439V33.0828C287.439 31.1984 287.748 27.8888 284.286 27.8888C281.438 27.8888 280.631 30.0058 280.631 32.4674V42.705H273.604V22.9413H280.631V25.5753Z" fill="white"/>
<path id="Fill 18" fill-rule="evenodd" clip-rule="evenodd" d="M298.199 21.8428V22.7208H298.783C299.249 22.7208 299.886 22.7867 299.886 22.3205C299.886 21.8856 299.521 21.8428 299.109 21.8428H298.199ZM300.338 24.6977H299.77L298.892 23.1603H298.199V24.6977H297.759V21.1846H299.203C299.824 21.1846 300.384 21.409 300.384 22.1308C300.384 22.8075 299.926 23.0759 299.467 23.0909L300.338 24.6977ZM296.373 22.9545C296.373 24.3912 297.54 25.511 298.938 25.511C300.338 25.511 301.503 24.3912 301.503 22.9545C301.503 21.5085 300.338 20.398 298.938 20.398C297.54 20.398 296.373 21.5085 296.373 22.9545ZM295.877 22.9546C295.877 21.2529 297.228 19.9006 298.938 19.9006C300.648 19.9006 302 21.2529 302 22.9546C302 24.6562 300.648 26.0085 298.938 26.0085C297.228 26.0085 295.877 24.6562 295.877 22.9546Z" fill="white"/>
<path id="Fill 19" fill-rule="evenodd" clip-rule="evenodd" d="M4.96697 47.2909C4.96697 47.2909 7.94338 48.4801 7.94338 49.6704C7.94338 49.6704 7.76292 50.5634 6.75189 50.5634C5.74201 50.5634 4.37354 48.9648 4.37354 48.1828C4.37354 47.4019 4.96697 47.2909 4.96697 47.2909Z" fill="white"/>
<path id="Fill 20" fill-rule="evenodd" clip-rule="evenodd" d="M1.83144 32.6256C1.81756 32.5655 1.77823 32.5134 1.7227 32.4868C1.66717 32.4579 1.60239 32.4567 1.54571 32.481C0.965004 32.7367 0.000244141 33.4319 0.000244141 34.879C0.000244141 40.2176 14.3953 40.8191 22.1897 50.3719C23.0388 51.4118 24.3228 52.0087 25.6659 51.9821C27.4346 51.9497 29.1999 51.856 30.7627 51.6039C30.9466 51.5749 31.1028 51.4512 31.1756 51.28C31.2485 51.1076 31.2277 50.9109 31.119 50.7571C21.6264 37.24 3.55621 40.3668 1.83144 32.6256Z" fill="white"/>
<path id="Fill 21" fill-rule="evenodd" clip-rule="evenodd" d="M22.4706 15.9143C21.5463 14.9889 18.9273 15.6957 17.5195 16.8883C16.0735 18.1134 16.6485 18.9358 16.6485 18.9358C17.8237 17.2782 19.6642 16.6014 20.7018 16.4696C21.9766 16.3088 22.4706 15.9143 22.4706 15.9143Z" fill="white"/>
<path id="Fill 22" fill-rule="evenodd" clip-rule="evenodd" d="M51.9302 18.6877C51.9302 18.6877 50.0608 19.1608 48.1266 17.1619C48.1266 17.1619 48.8762 17.2475 49.0706 16.1508C49.0706 16.1508 50.1232 18.3233 51.9302 18.6877ZM51.2431 27.662C51.2431 27.662 50.9481 29.8414 48.2528 29.8414C45.5586 29.8414 43.2057 26.0205 42.278 17.2787C42.9443 18.3186 43.6256 19.3181 44.1334 20.4946C44.1334 19.2626 44.7084 17.2162 41.9679 15.1143C41.9679 15.1143 49.2198 16.6239 49.391 24.0817C49.391 25.3681 48.638 26.6915 48.1544 27.175C48.1544 27.175 47.8236 27.4607 48.0283 27.8795C48.2319 28.2959 48.7375 28.1976 49.4223 27.736C50.1059 27.2756 51.2431 26.4855 51.2431 27.662ZM41.0402 31.8149C41.0402 31.8149 39.0783 35.527 36.4119 35.527C35.3222 35.527 34.5449 34.7485 34.5449 33.6704C34.5449 32.5934 35.8659 28.7367 41.6001 28.7367C42.9721 28.7367 44.0444 28.9877 44.0444 29.816C44.0444 30.6431 42.7442 32.0683 41.0402 31.8149ZM41.0402 13.2588C41.0402 13.2588 40.2849 13.1096 40.5266 11.9771C40.6469 11.5942 40.7314 11.6 40.7314 11.0146C40.7314 10.4305 40.8852 9.74796 41.3503 9.54783C41.3503 9.54783 42.1461 9.54899 42.1461 11.6347C42.1461 12.5381 41.0402 13.2588 41.0402 13.2588ZM38.5659 13.2589C37.4588 13.1397 38.2466 11.3479 37.4507 11.2391C37.1442 11.1963 37.0713 13.267 36.7104 12.95C35.9967 12.323 36.5241 11.0425 36.5982 10.4444C36.6734 9.84521 36.9637 9.09792 36.3182 9.54791C35.6739 9.9979 35.3292 10.9476 35.1105 11.7551C34.8919 12.5625 35.3292 12.9466 35.6299 13.8824C35.9296 14.8171 35.3731 14.4966 35.3731 14.4966C32.369 12.6955 34.5345 8.90358 34.5345 8.90358C35.8347 6.67792 37.7839 7.34192 37.7839 7.34192C38.1622 7.47842 38.257 7.69937 38.257 8.17249C38.257 8.64562 38.3831 8.796 38.9418 8.92903C39.5017 9.06206 39.7655 9.74804 39.7655 10.8609C39.7655 11.9737 39.061 13.3121 38.5659 13.2589ZM43.1791 13.0542L48.1209 14.5499C48.1209 14.5499 49.0266 16.2365 47.2001 15.7414C45.3723 15.2474 43.5874 14.6887 43.5874 14.6887C43.5874 14.6887 42.6192 14.1936 43.1791 13.0542ZM18.8796 20.4946C15.3745 21.1181 14.1344 20.0423 14.1344 19.1353C14.1344 16.3648 22.0989 14.2202 24.3408 14.1866C24.7919 14.8691 23.9972 14.7534 23.6721 15.7818C23.3471 16.8125 22.5547 17.1387 21.3956 17.2787C20.2365 17.4187 19.0207 18.0214 18.2561 18.7247C17.5446 19.3794 18.2561 19.6767 19.7021 19.2614C21.1168 18.8542 21.288 19.4616 21.8664 19.2464C22.4448 19.0324 21.9312 18.3337 22.1753 18.2076C22.5501 18.0121 23.3228 18.5396 23.3228 18.5396L25.3368 19.8213C25.3368 19.8213 23.0729 20.9723 22.9144 21.0602C22.756 21.1482 22.4853 21.2985 22.4853 21.6074C22.4853 22.0979 23.7392 21.9186 24.1696 21.9186C24.5999 21.9186 24.6658 22.6219 24.6658 22.6219C24.0076 23.3831 22.2933 23.3889 22.2933 23.3889C22.6738 24.1986 24.8336 24.0667 25.2685 24.0818C25.7046 24.098 25.7497 24.7099 25.9695 25.7105C26.1905 26.7123 27.589 27.1392 27.589 27.1392C28.0402 28.6222 26.2553 29.0525 25.073 29.0525C18.1485 29.0525 18.8796 20.4946 18.8796 20.4946ZM19.6663 9.48655C19.5691 9.47614 19.4916 9.39979 19.4789 9.30262C19.1041 6.5298 20.3198 3.14736 20.3198 3.14736C20.3198 3.14736 17.3677 5.53034 17.4822 9.33848C14.9755 9.2737 11.2923 9.5467 9.11751 11.4033C6.07054 14.0061 5.56965 18.9167 5.48983 20.2053C5.48636 20.2782 5.44356 20.3418 5.38109 20.3754C5.31747 20.4078 5.24112 20.4055 5.17981 20.3684C4.46145 19.9346 2.76791 18.5025 3.98601 15.1143C5.50487 10.8897 10.1933 2.12591 19.5471 1.53248C19.5471 1.53248 22.409 1.41218 24.342 2.4394C24.4056 2.47295 24.4484 2.53657 24.4553 2.60829C24.4611 2.68001 24.4322 2.75058 24.3755 2.79569C23.5727 3.43308 21.0822 5.66452 20.188 9.3593C20.1625 9.46457 20.0607 9.53513 19.952 9.52125C19.8768 9.51084 19.7808 9.50043 19.6663 9.48655ZM26.6208 21.118C26.6208 21.118 27.485 24.8984 29.2224 26.2345C29.2224 26.2345 29.1565 26.6174 28.6094 26.6174C28.0622 26.6174 27.0292 25.7417 26.6208 23.6977C26.2125 21.6548 26.6208 21.118 26.6208 21.118ZM29.2224 11.7215C27.0292 11.7215 26.0621 9.8568 26.0621 9.8568C26.0621 9.8568 28.577 12.2375 32.0716 10.3022C32.0716 10.3022 31.4157 11.7215 29.2224 11.7215ZM56.1664 14.8749C55.6111 13.747 54.747 12.8389 53.0939 12.4329C51.4848 12.0373 50.0666 12.2397 49.0938 13.0888L45.8733 11.9956C45.5089 11.2044 45.2058 10.4826 44.9883 9.86021C44.8044 9.33503 44.4377 8.89545 43.9542 8.62013C41.8465 7.41823 36.1389 4.56444 33.9271 7.4807C33.9271 7.4807 33.8115 7.61026 33.6541 7.84277L32.9635 7.6091C32.6061 6.36555 31.4296 5.41236 29.7962 5.01211C28.7922 4.76572 27.8043 4.82703 26.9841 5.12895C26.3883 5.34874 26.3594 6.04628 26.9586 6.25682L29.529 7.15795C30.112 7.3627 30.4186 8.00125 30.2138 8.58427L30.2115 8.59237C30.0068 9.17539 29.3682 9.48194 28.7852 9.27719C28.7852 9.27719 27.1495 8.79365 26.0008 8.4524C25.397 8.27194 24.8417 8.83761 25.0222 9.44261C25.3912 10.6734 26.6024 11.7643 28.2219 12.1611C29.5973 12.4988 30.9415 12.2582 31.8669 11.6151L32.4696 11.8198C32.5147 13.2184 33.5951 14.8899 34.605 15.4891C36.1539 16.4076 37.5733 15.5909 39.1847 14.8055C39.1847 14.8055 43.2196 18.0306 41.3502 27.175C36.1829 27.7198 34.3147 29.5788 32.4383 31.4539C31.2654 30.9878 27.7129 30.7599 25.8227 31.196C26.3583 30.6604 27.2467 30.0276 28.3364 29.6054C28.8315 29.4134 29.1577 28.9368 29.1577 28.407C29.1577 28.407 31.5233 27.6504 31.5233 26.7817C31.5233 25.9129 28.6013 26.0009 27.4017 19.753C27.2074 19.0277 26.9876 18.4193 25.8713 17.8976C25.8713 17.8976 25.5612 17.2428 26.0112 16.5279C26.4624 15.8119 26.7932 15.4799 26.6741 14.9107C26.5538 14.3439 25.7186 13.8766 25.7186 13.8766V12.9257C25.7186 12.9257 23.3275 11.1836 23.3275 8.68838C23.3275 6.19435 26.5688 3.19827 27.4526 2.32837C27.5046 2.27747 27.5289 2.20575 27.5174 2.13403C27.5081 2.06346 27.4607 2.00447 27.3994 1.96745C26.2599 1.2595 23.9973 -0.000244141 20.52 -0.000244141C6.78428 -0.000244141 3.56957 12.323 0.624391 18.3105C0.558454 18.4424 0.5492 18.5963 0.615137 18.7281C3.55338 24.5907 8.29852 24.1118 8.55879 29.0282C8.76586 32.9589 7.84737 33.0468 6.93119 32.9636C6.33198 32.908 5.45051 32.3713 4.91607 32.0092C4.84319 31.9595 4.74602 31.9618 4.6743 32.015C4.60374 32.0682 4.57482 32.1607 4.60374 32.2463C4.96118 33.3175 6.02196 35.5258 9.05505 35.5258C10.5982 35.5258 11.0887 34.1273 11.0887 32.8363V28.3942C11.0887 27.957 10.9441 27.5405 10.6132 27.2548C9.56751 26.3571 7.34417 24.2009 7.34417 22.2853C7.34417 21.4674 7.8867 21.0417 8.52409 21.0417C9.71674 21.0417 10.8712 22.8359 11.7677 25.0974C11.9759 25.6249 12.2767 25.9985 12.5509 26.1825C12.5937 26.2114 12.6503 26.2102 12.692 26.1802C12.7336 26.1489 12.7521 26.0969 12.7383 26.0471C12.3692 24.7353 12.2466 23.3634 12.2073 22.6878C12.1911 22.4218 12.0685 22.173 11.8649 21.9984C10.9799 21.2418 8.58193 18.8658 8.58193 15.3145C8.58193 10.53 16.1982 10.9314 17.7356 11.061C18.1925 12.6562 19.1469 13.3479 19.7843 13.6394C17.4799 14.4885 12.279 16.1936 12.279 19.1376C12.279 22.2945 17.4927 22.0643 17.4927 22.0643C17.4927 22.0643 16.6632 28.3676 22.5351 30.2694C22.5351 30.2694 21.6189 31.196 18.4644 31.196C15.5215 31.196 14.0848 29.883 13.3849 28.3306C13.356 28.2658 13.2912 28.2242 13.2195 28.2265C13.1489 28.2277 13.0841 28.2716 13.0575 28.3387C12.8979 28.739 12.7695 29.4666 13.3271 30.377C14.1923 31.7894 15.3086 32.6003 15.3086 34.3945C15.3086 35.7202 14.1183 36.5508 13.6301 36.8365C13.5989 36.855 13.5816 36.8908 13.5873 36.929C13.592 36.9649 13.6186 36.9938 13.6544 37.0031C14.8112 37.283 20.0723 38.604 23.6144 40.286C23.6433 40.2987 23.6757 40.2976 23.7023 40.2802C24.0991 40.0304 27.1634 38.0291 27.3392 35.3893C27.3392 35.3893 27.5706 33.6646 24.9944 33.3534C24.9944 33.3534 26.1096 32.9219 28.1258 32.9219C30.1375 32.9219 32.3331 34.553 28.3792 42.6794C28.3595 42.7211 28.3734 42.7708 28.4116 42.7962C29.0189 43.178 33.5176 46.0468 36.3934 48.837C36.4593 48.9006 36.5484 48.933 36.6398 48.9261C36.73 48.9191 36.8145 48.874 36.8688 48.8011C37.2402 48.3095 37.9597 46.9919 38.4883 43.7518C38.5369 43.4533 38.7544 43.2081 39.0448 43.1248C40.7626 42.6297 46.6448 40.7221 49.2199 37.18C52.2529 33.0087 53.3045 32.5587 53.3045 32.5587C53.3045 32.5587 55.2895 31.447 54.4485 28.5076C54.0101 26.9726 51.6988 22.9469 49.4269 18.8241C49.9509 19.2001 50.5779 19.4951 51.2766 19.6674C52.659 20.0064 54.0124 19.7935 54.983 19.1885C55.197 19.0543 55.315 18.8103 55.2872 18.5616C55.2583 18.3105 55.0905 18.0988 54.8522 18.0156L52.2946 17.119C51.678 16.9027 51.353 16.2272 51.5693 15.6106L51.5728 15.6002C51.7891 14.9836 52.4646 14.6586 53.0824 14.8749L55.3647 15.6754C55.5926 15.7563 55.8459 15.6974 56.0171 15.5273C56.1883 15.3561 56.2728 15.0924 56.1664 14.8749Z" fill="white"/>
<path id="Fill 23" fill-rule="evenodd" clip-rule="evenodd" d="M21.4313 22.193C21.4313 22.193 20.4133 22.4625 20.6863 23.8669C20.9604 25.2828 22.1126 25.3198 22.1126 25.3198C21.1108 24.1549 21.4313 22.193 21.4313 22.193Z" fill="white"/>
<path id="Fill 24" fill-rule="evenodd" clip-rule="evenodd" d="M4.40319 41.7274C7.92329 43.7229 15.6957 46.0434 17.321 50.2206C17.321 50.2206 17.8751 51.1495 14.8073 51.1495C12.4833 51.1495 11.8587 50.5838 10.2068 48.6739C7.78332 45.871 2.97803 44.2388 2.97803 42.0745C2.97803 42.0745 3.00926 40.9362 4.40319 41.7274Z" fill="white"/>
</g>
</g>
</svg>
