<?xml version="1.0" encoding="UTF-8" standalone="no"?>
<svg width="426px" height="60px" viewBox="0 0 426 60" version="1.1" xmlns="http://www.w3.org/2000/svg" xmlns:xlink="http://www.w3.org/1999/xlink" xmlns:sketch="http://www.bohemiancoding.com/sketch/ns">
    <!-- Generator: Sketch 3.3.2 (12043) - http://www.bohemiancoding.com/sketch -->
    <title>Group Copy 2</title>
    <desc>Created with Sketch.</desc>
    <defs></defs>
    <g id="Page-1" stroke="none" stroke-width="1" fill="none" fill-rule="evenodd" sketch:type="MSPage">
        <g id="Group-Copy-2" sketch:type="MSLayerGroup">
            <path d="M88.802,45.984 L94.254,45.984 C104.014,45.984 111.351,42.282 111.351,31.445 C111.351,22.089 103.88,17.714 94.995,17.714 L88.802,17.714 L88.802,45.984 L88.802,45.984 Z M78.302,8.021 L94.052,8.021 C109.399,8.021 122.255,14.55 122.255,31.984 C122.255,47.398 109.668,55.677 95.466,55.677 L78.302,55.677 L78.302,8.021 L78.302,8.021 Z" id="Fill-2" fill="#1D2A35" sketch:type="MSShapeGroup"></path>
            <path d="M127.71,22.964 L137.806,22.964 L137.806,28.214 L137.941,28.214 C140.095,24.243 142.921,22.156 147.364,22.156 C148.508,22.156 149.787,22.224 150.729,22.493 L150.729,31.714 C149.316,31.31 147.902,31.042 146.422,31.042 C138.748,31.042 137.806,35.484 137.806,42.012 L137.806,55.677 L127.71,55.677 L127.71,22.964" id="Fill-3" fill="#1D2A35" sketch:type="MSShapeGroup"></path>
            <path d="M176.45,35.618 C176.517,32.253 173.892,29.426 170.257,29.426 C165.815,29.426 163.392,32.454 163.122,35.618 L176.45,35.618 L176.45,35.618 Z M184.998,50.023 C181.767,54.129 176.45,56.485 171.2,56.485 C161.103,56.485 153.026,49.754 153.026,39.321 C153.026,28.887 161.103,22.156 171.2,22.156 C180.623,22.156 186.546,28.887 186.546,39.321 L186.546,42.484 L163.122,42.484 C163.93,46.32 166.824,48.811 170.729,48.811 C174.027,48.811 176.248,47.128 177.931,44.84 L184.998,50.023 L184.998,50.023 Z" id="Fill-4" fill="#1D2A35" sketch:type="MSShapeGroup"></path>
            <path d="M209.527,41.34 C206.431,41.34 199.566,41.609 199.566,46.051 C199.566,48.475 202.123,49.619 204.345,49.619 C208.316,49.619 212.018,47.532 212.018,43.494 L212.018,41.34 L209.527,41.34 L209.527,41.34 Z M212.018,51.57 L211.883,51.57 C209.662,55.071 205.623,56.485 201.518,56.485 C195.392,56.485 189.873,52.984 189.873,46.388 C189.873,35.08 203.604,34.878 212.018,34.878 C212.018,31.31 209.056,29.022 205.556,29.022 C202.258,29.022 199.498,30.502 197.344,32.926 L191.959,27.407 C195.661,23.906 201.046,22.156 206.364,22.156 C218.143,22.156 221.307,28.147 221.307,39.051 L221.307,55.677 L212.018,55.677 L212.018,51.57 L212.018,51.57 Z" id="Fill-5" fill="#1D2A35" sketch:type="MSShapeGroup"></path>
            <path d="M227.634,22.964 L237.328,22.964 L237.328,27.407 L237.462,27.407 C238.809,24.849 242.107,22.156 247.02,22.156 C251.598,22.156 255.366,24.041 257.117,28.012 C259.473,23.839 262.636,22.156 267.483,22.156 C276.367,22.156 279.06,28.416 279.06,36.359 L279.06,55.677 L268.963,55.677 L268.963,36.628 C268.963,33.599 267.819,31.042 264.521,31.042 C259.876,31.042 258.396,34.339 258.396,38.378 L258.396,55.677 L248.299,55.677 L248.299,38.378 C248.299,35.955 248.434,31.042 243.789,31.042 C238.539,31.042 237.732,35.147 237.732,39.388 L237.732,55.677 L227.634,55.677 L227.634,22.964" id="Fill-6" fill="#1D2A35" sketch:type="MSShapeGroup"></path>
            <path d="M285.456,8.021 L295.957,8.021 L295.957,25.791 L316.352,25.791 L316.352,8.021 L326.852,8.021 L326.852,55.677 L316.352,55.677 L316.352,35.08 L295.957,35.08 L295.957,55.677 L285.456,55.677 L285.456,8.021" id="Fill-7" fill="#1D2A35" sketch:type="MSShapeGroup"></path>
            <path d="M349.538,47.599 C354.586,47.599 357.615,44.234 357.615,39.321 C357.615,34.407 354.586,31.042 349.538,31.042 C344.489,31.042 341.461,34.407 341.461,39.321 C341.461,44.234 344.489,47.599 349.538,47.599 L349.538,47.599 Z M349.538,22.156 C359.634,22.156 367.712,28.887 367.712,39.321 C367.712,49.754 359.634,56.485 349.538,56.485 C339.441,56.485 331.364,49.754 331.364,39.321 C331.364,28.887 339.441,22.156 349.538,22.156 L349.538,22.156 Z" id="Fill-8" fill="#1D2A35" sketch:type="MSShapeGroup"></path>
            <path d="M390.867,32.59 C389.386,30.772 387.434,29.83 385.011,29.83 C383.328,29.83 381.309,30.57 381.309,32.522 C381.309,37.369 398.338,33.262 398.338,45.715 C398.338,54.062 390.261,56.485 383.261,56.485 C378.684,56.485 373.635,55.34 370.404,52.042 L376.53,45.243 C378.414,47.532 380.636,48.811 383.665,48.811 C385.953,48.811 388.242,48.205 388.242,46.455 C388.242,41.205 371.212,45.648 371.212,33.195 C371.212,25.522 378.078,22.156 384.944,22.156 C389.251,22.156 394.031,23.233 397.059,26.464 L390.867,32.59" id="Fill-9" fill="#1D2A35" sketch:type="MSShapeGroup"></path>
            <path d="M425.392,31.042 L416.507,31.042 L416.507,41.945 C416.507,45.446 416.911,48.003 421.286,48.003 C422.363,48.003 424.517,47.869 425.392,47.061 L425.392,55.475 C423.17,56.282 420.68,56.485 418.324,56.485 C411.593,56.485 406.41,53.725 406.41,46.59 L406.41,31.042 L399.949,31.042 L399.949,22.964 L406.41,22.964 L406.41,13.271 L416.507,13.271 L416.507,22.964 L425.392,22.964 L425.392,31.042" id="Fill-10" fill="#1D2A35" sketch:type="MSShapeGroup"></path>
            <path d="M60.271,44.756 C55.397,47.476 49.738,48.985 43.722,48.862 C25.987,48.504 11.897,34.132 12.245,16.768 C12.37,10.87 14.132,5.398 17.114,0.741 C7.618,6.042 1.13,15.956 0.894,27.431 C0.543,44.797 14.645,59.169 32.383,59.527 C44.096,59.765 54.478,53.827 60.271,44.756" id="Fill-11" fill="#1D2A35" sketch:type="MSShapeGroup"></path>
            <path d="M43.396,45.128 C43.593,45.132 43.79,45.135 43.988,45.135 C48.616,45.135 53.181,43.987 57.24,41.832 C59.632,37.73 61.025,32.972 61.025,27.876 C61.025,12.566 48.65,0.153 33.379,0.153 C28.565,0.153 24.04,1.391 20.099,3.562 C17.555,7.657 16.151,12.366 16.049,17.204 C15.747,32.288 28.015,44.816 43.396,45.128" id="Fill-12" fill="#418BAC" sketch:type="MSShapeGroup"></path>
        </g>
    </g>
</svg>