<svg width="132" height="115" viewBox="0 0 132 115" fill="none" xmlns="http://www.w3.org/2000/svg">
<path d="M100.844 45.9022C98.2216 43.0317 99.0944 39.0948 101.696 36.5435C107.879 30.4838 116.304 33.9277 122.29 38.1904C122.417 38.2731 122.528 38.3655 122.637 38.4706C125.392 39.7348 127.191 41.9087 126.419 45.523C124.837 52.8625 114.909 52.9165 109.421 50.872C106.565 49.8108 102.933 48.1968 100.834 45.8866L100.844 45.9022Z" fill="#3DDFC2"/>
<path d="M48.0614 52.2589C49.1037 49.7721 51.5639 48.3461 54.3391 47.6851C54.4169 47.6366 54.4976 47.5755 54.5754 47.527C58.8277 44.9725 67.2862 46.1483 69.9345 50.7419C71.6526 53.7222 70.6646 57.1799 68.125 59.2929C65.9113 61.1488 62.8474 61.8493 60.0087 61.9231C55.199 62.0591 45.2966 58.845 48.0516 52.2433L48.0614 52.2589Z" fill="#3DDFC2"/>
<path d="M86.6178 79.073C83.3424 75.6916 85.5214 70.7133 89.5869 69.3666C89.5869 69.3666 89.6122 69.3725 89.6277 69.3628C90.8016 68.4903 92.2706 67.9525 93.7322 67.9054C94.9392 67.8658 96.2977 68.0343 97.6588 68.3632C98.1379 68.4211 98.5984 68.5012 99.025 68.6134C99.5117 68.7529 99.9809 68.9681 100.416 69.2154C101.467 69.6188 102.447 70.0989 103.274 70.61C107.2 73.0775 106.569 78.2683 103.025 80.6942C100.464 82.4428 97.3925 82.7157 94.4066 82.2763C91.7675 81.8907 88.5138 81.0565 86.6149 79.0856L86.6178 79.073Z" fill="#3DDFC2"/>
<path d="M46.2966 96.7831C44.9187 94.7467 44.9267 91.7273 47.7115 90.1635C52.2253 87.6298 58.3258 87.2074 62.8311 90.0487C65.7369 91.8671 67.3347 95.5382 65.5968 98.7289C64.2064 101.281 61.1276 102.391 58.3503 102.2C54.6664 101.958 47.9244 100.554 46.3122 96.7734L46.2966 96.7831Z" fill="#3DDFC2"/>
<path d="M5.09814 69.4227C4.61098 67.7925 5.22413 65.9515 6.46736 64.7225C6.77554 62.7043 8.24866 60.943 10.889 61.036C14.5992 61.1642 19.0685 62.2669 21.3571 65.14C22.7029 66.224 23.6713 67.673 23.9269 69.5556C24.2442 71.9184 23.3075 74.6959 20.6053 75.214C19.9375 75.3387 19.2756 75.4381 18.6128 75.4841C17.9469 75.7157 17.248 75.8598 16.5317 75.9067C14.1594 76.0354 11.0684 75.7048 8.91293 74.7259C6.71958 73.7383 5.23478 71.7037 5.09814 69.4227Z" fill="#3DDFC2"/>
<path d="M69.4776 22.2867C67.286 20.4876 67.9659 16.12 70.5287 14.9972C73.0041 13.9074 76.5849 13.2736 79.7107 13.7986C81.3043 13.9285 82.8257 14.4277 84.1481 15.6127C86.4317 17.6461 87.2415 21.2144 85.6906 23.9427C82.1001 30.2442 73.4431 25.5619 69.4649 22.2838L69.4776 22.2867Z" fill="#3DDFC2"/>
</svg>
