<svg width="236" height="48" viewBox="0 0 236 48" fill="none" xmlns="http://www.w3.org/2000/svg">
<g clip-path="url(#clip0_1_489)">
<mask id="mask0_1_489" style="mask-type:luminance" maskUnits="userSpaceOnUse" x="0" y="0" width="236" height="48">
<path d="M236 0H0V48H236V0Z" fill="white"/>
</mask>
<g mask="url(#mask0_1_489)">
<path d="M233.85 0H185.72C183.522 0 182.743 3.03699 184.646 4.18319L207.638 18.04V45.7557C207.638 48.0502 210.548 48.8638 211.646 46.8768L235.712 3.36328C236.539 1.86779 235.505 0 233.852 0" fill="#4B3FFF"/>
<path d="M30.0828 25.164C30.0988 24.8607 30.1109 24.5532 30.1109 24.2458C30.1109 23.9383 30.1008 23.6329 30.0828 23.3276C30.0728 23.156 30.0588 22.9866 30.0447 22.8151C30.0367 22.7231 30.0287 22.6311 30.0207 22.539C29.8063 20.3366 29.1752 18.2889 28.1152 16.4065C28.0732 16.3312 28.0271 16.2622 27.983 16.1889C27.8588 15.9735 27.7305 15.7623 27.5983 15.5531C27.5983 15.551 27.5943 15.5468 27.5923 15.5447C24.8954 11.3155 20.287 8.52744 15.0554 8.52744C9.8239 8.52744 5.22352 11.3113 2.5246 15.5322C2.50056 15.5698 2.47651 15.6096 2.45247 15.6493C2.34427 15.8229 2.23808 15.9965 2.13589 16.1743C2.08981 16.2538 2.03972 16.327 1.99564 16.4065C0.933701 18.2931 0.302551 20.3387 0.0901643 22.5432C0.080146 22.6331 0.0741351 22.721 0.0661205 22.813C0.0520949 22.9845 0.0380694 23.156 0.0280511 23.3296C0.0100183 23.6329 0 23.9362 0 24.2437C0 24.5511 0.0100183 24.8565 0.0280511 25.1619C0.0360657 25.3313 0.0520949 25.4986 0.0641168 25.666C0.0721314 25.7601 0.080146 25.8563 0.0901643 25.9504C0.304555 28.1508 0.935705 30.1964 1.99564 32.0788C2.03771 32.152 2.0838 32.221 2.12587 32.2942C2.2501 32.5097 2.37833 32.723 2.51057 32.9322C2.51057 32.9363 2.51458 32.9384 2.51659 32.9426C5.2155 37.1718 9.8239 39.9599 15.0554 39.9599C20.5555 39.9599 25.3662 36.879 27.993 32.2817C28.0331 32.2126 28.0772 32.1499 28.1152 32.0809C29.1752 30.1984 29.8043 28.155 30.0207 25.9546C30.0307 25.8584 30.0387 25.7622 30.0467 25.6639C30.0608 25.4965 30.0748 25.3313 30.0828 25.164ZM25.1338 24.2437C25.1338 24.4549 25.1258 24.662 25.1158 24.8691C24.8052 30.3888 20.4212 34.7665 15.0574 34.7665C9.69366 34.7665 5.28363 30.3658 4.9951 24.8251C4.98709 24.6641 4.98308 24.5009 4.98108 24.3378C4.98108 24.3064 4.97907 24.275 4.97907 24.2437C4.97907 24.2081 4.98108 24.1726 4.98108 24.1349C4.98108 23.976 4.98709 23.8191 4.9951 23.6643C5.28363 18.1216 9.67563 13.723 15.0574 13.723C20.4392 13.723 24.8072 18.0986 25.1158 23.6204C25.1258 23.8254 25.1338 24.0324 25.1338 24.2416" fill="white"/>
<path d="M51.1913 18.36C49.6144 17.3581 47.8652 16.8582 45.9477 16.8582C44.0302 16.8582 42.3271 17.3519 40.8464 18.3391C40.0149 18.8934 39.2896 19.5731 38.6664 20.3679V17.287H34.0601V47.8599H38.6664V36.1929C39.2916 36.9877 40.0149 37.6654 40.8464 38.2197C42.3271 39.2069 44.0262 39.7005 45.9477 39.7005C47.8692 39.7005 49.6144 39.2007 51.1913 38.1967C52.7681 37.1948 54.0084 35.8206 54.9141 34.0742C55.8197 32.3277 56.2705 30.395 56.2705 28.2784C56.2705 26.1617 55.8177 24.2269 54.9141 22.4825C54.0084 20.7361 52.7681 19.3619 51.1913 18.36ZM50.6984 31.8654C50.1353 32.9384 49.3679 33.7834 48.3942 34.3984C47.4204 35.0133 46.3304 35.3207 45.1242 35.3207C43.918 35.3207 42.82 35.0133 41.8342 34.3984C40.8464 33.7834 40.073 32.9384 39.51 31.8654C38.947 30.7924 38.6664 29.5961 38.6664 28.2804C38.6664 26.9648 38.947 25.7684 39.51 24.6955C40.071 23.6225 40.8404 22.7775 41.8142 22.1625C42.788 21.5476 43.8779 21.2401 45.0841 21.2401C46.2903 21.2401 47.3883 21.5476 48.3741 22.1625C49.3619 22.7775 50.1353 23.6225 50.6984 24.6955C51.2594 25.7684 51.5419 26.9648 51.5419 28.2804C51.5419 29.5961 51.2614 30.7924 50.6984 31.8654Z" fill="white"/>
<path d="M76.2209 18.6194C74.4657 17.446 72.4641 16.8582 70.216 16.8582C68.1602 16.8582 66.2948 17.3602 64.6218 18.36C62.9487 19.3619 61.6323 20.7361 60.6726 22.4825C59.7128 24.229 59.2339 26.1617 59.2339 28.2784C59.2339 30.395 59.7268 32.3298 60.7146 34.0742C61.7024 35.8206 63.0449 37.1948 64.746 38.1967C66.4451 39.1986 68.3385 39.7005 70.4223 39.7005C72.6444 39.7005 74.624 39.1484 76.3672 38.0482C78.1083 36.9459 79.4448 35.4651 80.3765 33.6036L76.5515 31.8424C75.9765 32.9886 75.159 33.8964 74.103 34.5699C73.0471 35.2434 71.861 35.5801 70.5446 35.5801C69.2282 35.5801 68.056 35.258 67.0281 34.6138C66.0003 33.9696 65.1908 33.0974 64.6017 31.9951C64.2551 31.3488 64.0147 30.6523 63.8704 29.9119H81.0337C81.3342 27.5358 81.0477 25.3543 80.1701 23.3631C79.2925 21.374 77.9761 19.7928 76.2209 18.6173M66.924 21.9471C67.9118 21.3029 69.0078 20.9808 70.214 20.9808C71.4201 20.9808 72.5041 21.2757 73.4639 21.8613C74.4236 22.4491 75.177 23.2564 75.726 24.2876C76.0406 24.8795 76.277 25.5091 76.4373 26.1763H63.9766C64.1188 25.6241 64.3172 25.0929 64.5797 24.5888C65.1547 23.4719 65.9382 22.5913 66.924 21.9471Z" fill="white"/>
<path d="M101.084 18.0609C99.7538 17.2598 98.239 16.8582 96.5399 16.8582C94.8408 16.8582 93.3721 17.2807 92.0557 18.1258C91.1421 18.7135 90.3747 19.4455 89.7515 20.3157V17.2891H85.1451V39.2739H89.7515V26.8644C89.7515 25.8061 89.984 24.846 90.4508 23.9885C90.9177 23.1288 91.5688 22.4574 92.4044 21.9701C93.2399 21.4828 94.1796 21.2401 95.2215 21.2401C96.2634 21.2401 97.2031 21.4828 98.0386 21.9701C98.8742 22.4574 99.5253 23.1288 99.9922 23.9885C100.459 24.8481 100.691 25.8061 100.691 26.8644V39.2739H105.258V26.0926C105.258 24.3462 104.893 22.7712 104.168 21.3698C103.44 19.9684 102.413 18.8641 101.082 18.063" fill="white"/>
<path d="M158.034 18.36C156.333 17.3581 154.441 16.8582 152.358 16.8582C150.274 16.8582 148.38 17.3602 146.681 18.36C144.98 19.3619 143.638 20.7361 142.65 22.4825C141.662 24.229 141.169 26.1617 141.169 28.2784C141.169 30.395 141.662 32.3298 142.65 34.0742C143.638 35.8206 144.98 37.1948 146.681 38.1967C148.38 39.1986 150.274 39.7005 152.358 39.7005C154.441 39.7005 156.333 39.2007 158.034 38.1967C159.733 37.1948 161.077 35.8206 162.065 34.0742C163.053 32.3277 163.546 30.395 163.546 28.2784C163.546 26.1617 163.053 24.2269 162.065 22.4825C161.077 20.7361 159.735 19.3619 158.034 18.36ZM157.972 31.8654C157.409 32.9384 156.635 33.7834 155.648 34.3984C154.66 35.0133 153.564 35.3207 152.358 35.3207C151.151 35.3207 150.053 35.0133 149.068 34.3984C148.08 33.7834 147.304 32.9384 146.743 31.8654C146.18 30.7924 145.9 29.5961 145.9 28.2804C145.9 26.9648 146.18 25.7684 146.743 24.6955C147.304 23.6225 148.08 22.7775 149.068 22.1625C150.055 21.5476 151.151 21.2401 152.358 21.2401C153.564 21.2401 154.662 21.5476 155.648 22.1625C156.635 22.7775 157.409 23.6225 157.972 24.6955C158.533 25.7684 158.815 26.9648 158.815 28.2804C158.815 29.5961 158.533 30.7924 157.972 31.8654Z" fill="white"/>
<path d="M181.397 17.287L175.063 34.5469L168.727 17.287H163.792L172.348 39.2718H177.531L186.045 17.287H181.397Z" fill="white"/>
<path d="M125.17 21.9262L122.607 26.5591H133.722C132.714 31.2526 128.694 34.7644 123.89 34.7644C118.324 34.7644 113.811 30.0541 113.811 24.2437C113.811 18.4332 118.322 13.7229 123.89 13.7229C127.619 13.7229 130.874 15.8375 132.616 18.9812L136.925 16.3855C134.323 11.6878 129.46 8.52533 123.89 8.52533C115.575 8.52533 108.834 15.5635 108.834 24.2416C108.834 32.9196 115.577 39.9557 123.89 39.9557C131.452 39.9557 137.709 34.1369 138.781 26.557C138.889 25.8019 138.945 25.028 138.945 24.2416C138.945 23.4551 138.889 22.6812 138.783 21.9241H125.172L125.17 21.9262Z" fill="white"/>
</g>
</g>
<defs>
<clipPath id="clip0_1_489">
<rect width="236" height="48" fill="white"/>
</clipPath>
</defs>
</svg>
