<svg width="111" height="115" viewBox="0 0 111 115" fill="none" xmlns="http://www.w3.org/2000/svg">
<g clip-path="url(#clip0_193_36071)">
<path d="M89.7205 52.0399C86.0037 51.5503 82.3047 50.8895 78.588 50.3881C77.4022 50.2288 76.0099 50.2288 74.6176 50.158C75.709 47.9338 76.9597 45.7923 78.1396 43.6095C79.6499 40.8131 81.1189 37.9931 82.523 35.1436C82.7177 34.7542 82.8947 34.3236 83.0717 33.887C86.6055 28.2057 90.4166 22.6955 94.446 17.3505C88.4049 18.9847 83.2958 22.8312 77.8152 25.7338C71.597 29.0258 65.0898 31.946 58.677 34.9017C58.1932 33.0729 58.1873 31.0375 57.8275 29.2382C57.5089 27.6394 57.1431 26.0524 56.7479 24.4654C53.9515 16.147 50.0342 8.21804 46.9546 0.00585938C46.6419 0.112051 46.3292 0.289038 46.0402 0.542719C45.0372 1.43355 44.4473 2.56627 44.0992 3.81107C43.5211 5.86412 43.586 8.20624 43.4975 10.218C43.2792 15.2031 42.9488 20.2 42.6125 25.1793C42.0344 33.6805 41.0019 42.2172 41.7158 50.7302C40.6008 50.7774 39.4917 50.7892 38.3766 50.7774C37.6333 50.7715 36.8959 50.7597 36.1525 50.7361C24.0938 50.8954 12.041 51.214 -0.00585938 51.7567C0.147529 52.3585 0.501502 52.8954 1.07376 53.1903C1.95869 53.6446 2.85542 54.0753 3.75806 54.5C9.08535 57.0014 14.6014 59.0309 20.0172 61.3612C25.0201 63.5146 29.7456 66.2756 34.8723 68.1044C34.5714 68.3758 34.2941 68.6354 34.0464 68.8596C33.2322 69.5911 32.4358 70.3403 31.6511 71.1014C31.2677 71.4731 30.8901 71.8447 30.5184 72.2164C28.5008 74.234 26.5421 76.3166 24.5835 78.3814C22.1116 80.9831 19.4096 83.3607 17.0793 86.0981C14.7548 88.8295 12.0351 92.3516 12.4009 96.027C17.3919 93.8619 22.3771 91.6908 27.4448 89.7263C29.2087 88.859 31.014 88.0626 32.7957 87.2721C34.8841 86.3458 37.0079 85.4609 39.0846 84.4875C36.7779 87.5906 34.4888 90.6997 32.7131 94.145C29.4742 100.434 27.4035 107.395 26.0702 114.339C26.0289 114.558 25.9817 114.776 25.9463 115C29.8459 110.481 34.0641 106.216 38.241 101.956C42.1052 98.0152 45.9635 94.0507 49.5091 89.8148C50.9958 88.039 52.4117 86.0863 53.9869 84.3105C55.214 82.9241 56.5355 81.6498 58.0517 80.6351C58.1991 80.5348 58.3466 80.4581 58.4941 80.3991C58.6003 80.2044 58.7006 80.0097 58.7891 79.8091C59.4145 80.0333 60.0339 80.2811 60.6298 80.5761C62.5884 81.5377 64.3347 82.9772 66.1046 84.2397C69.5971 86.7293 73.0837 89.2366 76.7768 91.4195C81.3431 94.1215 86.1158 97.2482 91.3015 98.6818C92.9947 99.1479 94.7292 99.4369 96.5168 99.4723C97.0123 99.4841 97.4371 99.3367 97.7734 99.0948C96.5639 97.5432 94.9062 96.1686 93.6614 94.8648C93.1658 94.3456 92.682 93.8147 92.2042 93.2778C91.1717 92.3044 90.1865 91.2838 89.2544 90.1982C88.1453 88.9062 87.0303 87.6201 85.9153 86.3281C83.5731 84.0981 81.3608 81.7265 79.2546 79.3136C76.2164 75.8328 73.4731 71.9804 70.1693 68.7357C69.6089 68.187 69.0366 67.656 68.4467 67.1487C70.3581 66.423 72.3522 65.898 74.3934 65.4909C77.0895 64.1458 80.1986 63.6856 83.1602 63.2963C87.1247 62.783 90.9299 62.1341 94.8 61.1075C98.1981 60.2108 101.584 59.202 104.994 58.2934C106.87 57.792 108.747 57.3141 110.64 56.9012C110.451 56.4528 110.121 56.0693 109.631 55.8569C103.313 53.1254 96.4696 52.919 89.7382 52.034L89.7205 52.0399Z" fill="#A3E635"/>
</g>
<defs>
<clipPath id="clip0_193_36071">
<rect width="110.623" height="115" fill="white"/>
</clipPath>
</defs>
</svg>
